<svg xmlns="http://www.w3.org/2000/svg" viewBox="0 0 800 600">
<defs>
  <filter id="roundCorners">
    <feGaussianBlur in="SourceGraphic" stdDeviation="2" result="blur" />
    <feColorMatrix in="blur" type="matrix" values="1 0 0 0 0  0 1 0 0 0  0 0 1 0 0  0 0 0 19 -9" result="goo" />
    <feComposite in="SourceGraphic" in2="goo" operator="atop"/>
  </filter>
</defs>
<polygon points="410.12,332.31 410.37,327.34 411.10,322.37 412.30,317.53 413.94,312.95 415.98,308.73 418.36,304.97 421.03,301.78 423.93,299.22 426.98,297.37 430.11,296.26 433.24,295.93 458.23,299.61 461.28,300.06 464.17,301.28 466.85,303.24 469.23,305.90 471.27,309.18 472.91,313.01 474.11,317.30 474.84,321.93 475.09,326.79 474.84,331.77 474.11,336.74 472.91,341.57 471.27,346.16 469.23,350.38 466.85,354.13 464.17,357.33 461.28,359.88 458.23,361.74 455.10,362.85 451.97,363.18 426.98,359.50 423.93,359.05 421.03,357.83 418.36,355.86 415.98,353.21 413.94,349.92 412.30,346.09 411.10,341.81 410.37,337.18" fill="#457bbd" stroke="#0b1641" stroke-width="9" stroke-linejoin="round" stroke-linecap="round" />
<polygon points="450.10,323.11 450.35,318.13 451.08,313.16 452.28,308.33 453.92,303.74 455.96,299.52 458.34,295.77 461.02,292.57 463.91,290.02 466.96,288.16 470.09,287.05 473.22,286.72 498.21,290.40 501.26,290.85 504.15,292.07 506.83,294.04 509.21,296.69 511.25,299.98 512.89,303.81 514.09,308.09 514.82,312.72 515.07,317.59 514.82,322.56 514.09,327.53 512.89,332.37 511.25,336.95 509.21,341.17 506.83,344.93 504.15,348.12 501.26,350.68 498.21,352.53 495.08,353.64 491.95,353.97 466.96,350.29 463.91,349.84 461.02,348.62 458.34,346.66 455.96,344.00 453.92,340.72 452.28,336.89 451.08,332.60 450.35,327.97" fill="#457bbd" stroke="#0b1641" stroke-width="9" stroke-linejoin="round" stroke-linecap="round" />
<polygon points="475.09,326.79 474.84,321.93 474.11,317.30 472.91,313.01 471.27,309.18 469.23,305.90 466.85,303.24 464.17,301.28 461.28,300.06 458.23,299.61 455.10,299.94 451.97,301.05 448.92,302.90 446.02,305.46 443.35,308.65 440.96,312.41 438.93,316.63 437.29,321.22 436.09,326.05 435.35,331.02 435.11,336.00 435.35,340.86 436.09,345.49 437.29,349.77 438.93,353.61 440.96,356.89 443.35,359.55 446.02,361.51 448.92,362.73 451.97,363.18 455.10,362.85 458.23,361.74 461.28,359.88 464.17,357.33 466.85,354.13 469.23,350.38 471.27,346.16 472.91,341.57 474.11,336.74 474.84,331.77" fill="#6ba4f1" stroke="#0b1641" stroke-width="9" stroke-linejoin="round" stroke-linecap="round" />
<polygon points="515.07,317.59 514.82,312.72 514.09,308.09 512.89,303.81 511.25,299.98 509.21,296.69 506.83,294.04 504.15,292.07 501.26,290.85 498.21,290.40 495.08,290.74 491.95,291.84 488.90,293.70 486.00,296.25 483.33,299.45 480.94,303.20 478.91,307.43 477.27,312.01 476.07,316.85 475.33,321.81 475.09,326.79 475.33,331.65 476.07,336.29 477.27,340.57 478.91,344.40 480.94,347.68 483.33,350.34 486.00,352.30 488.90,353.52 491.95,353.97 495.08,353.64 498.21,352.53 501.26,350.68 504.15,348.12 506.83,344.93 509.21,341.17 511.25,336.95 512.89,332.37 514.09,327.53 514.82,322.56" fill="#6ba4f1" stroke="#0b1641" stroke-width="9" stroke-linejoin="round" stroke-linecap="round" />
<polygon points="348.78,258.06 411.24,267.27 471.22,253.46 408.75,244.26" fill="#457bbd" stroke="#0b1641" stroke-width="9" stroke-linejoin="round" stroke-linecap="round" />
<polygon points="348.78,258.06 408.75,244.26 408.75,197.08 348.78,210.88" fill="#6ba4f1" stroke="#0b1641" stroke-width="9" stroke-linejoin="round" stroke-linecap="round" />
<polygon points="408.75,244.26 471.22,253.46 471.22,206.28 408.75,197.08" fill="#6ba4f1" stroke="#0b1641" stroke-width="9" stroke-linejoin="round" stroke-linecap="round" />
<polygon points="310.04,333.29 410.00,348.02 479.96,331.91 380.01,317.18" fill="#457bbd" stroke="#0b1641" stroke-width="9" stroke-linejoin="round" stroke-linecap="round" />
<polygon points="390.00,264.56 489.96,279.29 479.96,269.01 380.01,254.28" fill="#6ba4f1" stroke="#0b1641" stroke-width="9" stroke-linejoin="round" stroke-linecap="round" />
<polygon points="380.01,317.18 479.96,331.91 489.96,317.03 390.00,302.30" fill="#457bbd" stroke="#0b1641" stroke-width="9" stroke-linejoin="round" stroke-linecap="round" />
<polygon points="390.00,302.30 489.96,317.03 489.96,279.29 390.00,264.56" fill="#6ba4f1" stroke="#0b1641" stroke-width="9" stroke-linejoin="round" stroke-linecap="round" />
<polygon points="310.04,333.29 380.01,317.18 390.00,302.30 390.00,264.56 380.01,254.28 310.04,270.39" fill="#6ba4f1" stroke="#0b1641" stroke-width="9" stroke-linejoin="round" stroke-linecap="round" />
<polygon points="284.93,313.87 285.18,308.89 285.91,303.92 287.11,299.09 288.75,294.50 290.79,290.28 293.17,286.52 295.85,283.33 298.74,280.77 301.79,278.92 304.92,277.81 308.05,277.48 333.04,281.16 336.09,281.61 338.98,282.83 341.66,284.80 344.04,287.45 346.08,290.74 347.72,294.57 348.92,298.85 349.65,303.48 349.90,308.34 349.65,313.32 348.92,318.29 347.72,323.12 346.08,327.71 344.04,331.93 341.66,335.69 338.98,338.88 336.09,341.44 333.04,343.29 329.91,344.40 326.78,344.73 301.79,341.05 298.74,340.60 295.85,339.38 293.17,337.41 290.79,334.76 288.75,331.47 287.11,327.64 285.91,323.36 285.18,318.73" fill="#457bbd" stroke="#0b1641" stroke-width="9" stroke-linejoin="round" stroke-linecap="round" />
<polygon points="324.91,304.66 325.16,299.68 325.89,294.72 327.09,289.88 328.73,285.29 330.77,281.07 333.15,277.32 335.83,274.12 338.72,271.57 341.77,269.71 344.90,268.61 348.03,268.27 373.02,271.96 376.07,272.41 378.97,273.63 381.64,275.59 384.02,278.25 386.06,281.53 387.70,285.36 388.90,289.64 389.63,294.27 389.88,299.14 389.63,304.11 388.90,309.08 387.70,313.92 386.06,318.50 384.02,322.73 381.64,326.48 378.97,329.68 376.07,332.23 373.02,334.09 369.89,335.19 366.76,335.53 341.77,331.84 338.72,331.39 335.83,330.17 333.15,328.21 330.77,325.55 328.73,322.27 327.09,318.44 325.89,314.16 325.16,309.52" fill="#457bbd" stroke="#0b1641" stroke-width="9" stroke-linejoin="round" stroke-linecap="round" />
<polygon points="324.91,304.66 324.67,299.80 323.93,295.17 322.73,290.88 321.09,287.05 319.06,283.77 316.67,281.11 314.00,279.15 311.10,277.93 308.05,277.48 304.92,277.81 301.79,278.92 298.74,280.77 295.85,283.33 293.17,286.52 290.79,290.28 288.75,294.50 287.11,299.09 285.91,303.92 285.18,308.89 284.93,313.87 285.18,318.73 285.91,323.36 287.11,327.64 288.75,331.47 290.79,334.76 293.17,337.41 295.85,339.38 298.74,340.60 301.79,341.05 304.92,340.72 308.05,339.61 311.10,337.75 314.00,335.20 316.67,332.00 319.06,328.25 321.09,324.03 322.73,319.44 323.93,314.61 324.67,309.64" fill="#6ba4f1" stroke="#0b1641" stroke-width="9" stroke-linejoin="round" stroke-linecap="round" />
<polygon points="364.89,295.46 364.65,290.59 363.91,285.96 362.71,281.68 361.07,277.85 359.04,274.56 356.65,271.91 353.98,269.94 351.08,268.72 348.03,268.27 344.90,268.61 341.77,269.71 338.72,271.57 335.83,274.12 333.15,277.32 330.77,281.07 328.73,285.29 327.09,289.88 325.89,294.72 325.16,299.68 324.91,304.66 325.16,309.52 325.89,314.16 327.09,318.44 328.73,322.27 330.77,325.55 333.15,328.21 335.83,330.17 338.72,331.39 341.77,331.84 344.90,331.51 348.03,330.40 351.08,328.55 353.98,325.99 356.65,322.80 359.04,319.04 361.07,314.82 362.71,310.24 363.91,305.40 364.65,300.43" fill="#6ba4f1" stroke="#0b1641" stroke-width="9" stroke-linejoin="round" stroke-linecap="round" />
<polygon points="447.98,226.26 448.34,223.40 449.41,220.92 451.07,219.08 453.16,218.05 455.47,217.93 457.79,218.73 459.88,220.38 461.54,222.71 462.60,225.50 462.97,228.47 462.60,231.33 461.54,233.80 459.88,235.65 457.79,236.68 455.47,236.80 453.16,236.00 451.07,234.35 449.41,232.02 448.34,229.23" fill="white" stroke="#0b1641" stroke-width="6" stroke-linejoin="round" stroke-linecap="round" />
<polygon points="417.99,221.84 418.36,218.98 419.42,216.50 421.08,214.66 423.17,213.63 425.49,213.51 427.80,214.31 429.89,215.96 431.55,218.29 432.62,221.08 432.98,224.05 432.62,226.91 431.55,229.38 429.89,231.23 427.80,232.26 425.49,232.38 423.17,231.58 421.08,229.93 419.42,227.60 418.36,224.81" fill="white" stroke="#0b1641" stroke-width="6" stroke-linejoin="round" stroke-linecap="round" />
</svg>