<svg xmlns="http://www.w3.org/2000/svg" viewBox="0 0 800 600">
<defs>
  <filter id="roundCorners">
    <feGaussianBlur in="SourceGraphic" stdDeviation="2" result="blur" />
    <feColorMatrix in="blur" type="matrix" values="1 0 0 0 0  0 1 0 0 0  0 0 1 0 0  0 0 0 19 -9" result="goo" />
    <feComposite in="SourceGraphic" in2="goo" operator="atop"/>
  </filter>
</defs>
  <g id="wheel_bl">
    <g stroke="#0b1641" stroke-width="16" stroke-linejoin="round" fill="none">
      <polygon points="405.12,333.47 405.43,327.24 406.35,321.03 407.85,314.99 409.89,309.26 412.44,303.98 415.42,299.29 418.77,295.29 422.39,292.10 426.20,289.78 430.11,288.40 434.02,287.98 459.01,291.66 462.82,292.22 466.44,293.75 469.79,296.21 472.77,299.53 475.31,303.63 477.36,308.42 478.86,313.77 479.78,319.56 480.09,325.64 479.78,331.86 478.86,338.07 477.36,344.12 475.31,349.85 472.77,355.13 469.79,359.82 466.44,363.81 462.82,367.01 459.01,369.33 455.10,370.71 451.19,371.13 426.20,367.44 422.39,366.88 418.77,365.35 415.42,362.90 412.44,359.58 409.89,355.48 407.85,350.69 406.35,345.33 405.43,339.54" />
      <polygon points="455.10,321.96 454.79,315.88 453.88,310.09 452.37,304.74 450.33,299.95 447.78,295.84 444.80,292.52 441.45,290.07 437.83,288.54 434.02,287.98 430.11,288.40 426.20,289.78 422.39,292.10 418.77,295.29 415.42,299.29 412.44,303.98 409.89,309.26 407.85,314.99 406.35,321.03 405.43,327.24 405.12,333.47 405.43,339.54 406.35,345.33 407.85,350.69 409.89,355.48 412.44,359.58 415.42,362.90 418.77,365.35 422.39,366.88 426.20,367.44 430.11,367.03 434.02,365.64 437.83,363.33 441.45,360.13 444.80,356.14 447.78,351.44 450.33,346.17 452.37,340.43 453.88,334.39 454.79,328.18" />
    </g>
    <g stroke-linejoin="round">
      <polygon points="405.12,333.47 405.43,327.24 406.35,321.03 407.85,314.99 409.89,309.26 412.44,303.98 415.42,299.29 418.77,295.29 422.39,292.10 426.20,289.78 430.11,288.40 434.02,287.98 459.01,291.66 462.82,292.22 466.44,293.75 469.79,296.21 472.77,299.53 475.31,303.63 477.36,308.42 478.86,313.77 479.78,319.56 480.09,325.64 479.78,331.86 478.86,338.07 477.36,344.12 475.31,349.85 472.77,355.13 469.79,359.82 466.44,363.81 462.82,367.01 459.01,369.33 455.10,370.71 451.19,371.13 426.20,367.44 422.39,366.88 418.77,365.35 415.42,362.90 412.44,359.58 409.89,355.48 407.85,350.69 406.35,345.33 405.43,339.54" fill="#457bbd" stroke="#457bbd" stroke-width="1.5" />
      <polygon points="455.10,321.96 454.79,315.88 453.88,310.09 452.37,304.74 450.33,299.95 447.78,295.84 444.80,292.52 441.45,290.07 437.83,288.54 434.02,287.98 430.11,288.40 426.20,289.78 422.39,292.10 418.77,295.29 415.42,299.29 412.44,303.98 409.89,309.26 407.85,314.99 406.35,321.03 405.43,327.24 405.12,333.47 405.43,339.54 406.35,345.33 407.85,350.69 409.89,355.48 412.44,359.58 415.42,362.90 418.77,365.35 422.39,366.88 426.20,367.44 430.11,367.03 434.02,365.64 437.83,363.33 441.45,360.13 444.80,356.14 447.78,351.44 450.33,346.17 452.37,340.43 453.88,334.39 454.79,328.18" fill="#6ba4f1" stroke="#6ba4f1" stroke-width="1.5" />
    </g>
  </g>
  <g id="wheel_fl">
    <g stroke="#0b1641" stroke-width="16" stroke-linejoin="round" fill="none">
      <polygon points="457.60,321.38 457.90,315.16 458.82,308.95 460.32,302.91 462.37,297.18 464.92,291.90 467.90,287.20 471.24,283.21 474.86,280.02 478.68,277.70 482.58,276.31 486.49,275.90 511.48,279.58 515.29,280.14 518.92,281.67 522.26,284.12 525.24,287.44 527.79,291.55 529.84,296.34 531.34,301.69 532.25,307.48 532.56,313.56 532.25,319.78 531.34,325.99 529.84,332.03 527.79,337.77 525.24,343.04 522.26,347.74 518.92,351.73 515.29,354.93 511.48,357.24 507.57,358.63 503.66,359.04 478.68,355.36 474.86,354.80 471.24,353.27 467.90,350.82 464.92,347.50 462.37,343.39 460.32,338.60 458.82,333.25 457.90,327.46" />
      <polygon points="507.57,309.88 507.26,303.80 506.35,298.01 504.85,292.65 502.80,287.87 500.25,283.76 497.27,280.44 493.93,277.99 490.31,276.46 486.49,275.90 482.58,276.31 478.68,277.70 474.86,280.02 471.24,283.21 467.90,287.20 464.92,291.90 462.37,297.18 460.32,302.91 458.82,308.95 457.90,315.16 457.60,321.38 457.90,327.46 458.82,333.25 460.32,338.60 462.37,343.39 464.92,347.50 467.90,350.82 471.24,353.27 474.86,354.80 478.68,355.36 482.58,354.95 486.49,353.56 490.31,351.24 493.93,348.05 497.27,344.05 500.25,339.36 502.80,334.08 504.85,328.35 506.35,322.31 507.26,316.10" />
    </g>
    <g stroke-linejoin="round">
      <polygon points="457.60,321.38 457.90,315.16 458.82,308.95 460.32,302.91 462.37,297.18 464.92,291.90 467.90,287.20 471.24,283.21 474.86,280.02 478.68,277.70 482.58,276.31 486.49,275.90 511.48,279.58 515.29,280.14 518.92,281.67 522.26,284.12 525.24,287.44 527.79,291.55 529.84,296.34 531.34,301.69 532.25,307.48 532.56,313.56 532.25,319.78 531.34,325.99 529.84,332.03 527.79,337.77 525.24,343.04 522.26,347.74 518.92,351.73 515.29,354.93 511.48,357.24 507.57,358.63 503.66,359.04 478.68,355.36 474.86,354.80 471.24,353.27 467.90,350.82 464.92,347.50 462.37,343.39 460.32,338.60 458.82,333.25 457.90,327.46" fill="#457bbd" stroke="#457bbd" stroke-width="1.5" />
      <polygon points="507.57,309.88 507.26,303.80 506.35,298.01 504.85,292.65 502.80,287.87 500.25,283.76 497.27,280.44 493.93,277.99 490.31,276.46 486.49,275.90 482.58,276.31 478.68,277.70 474.86,280.02 471.24,283.21 467.90,287.20 464.92,291.90 462.37,297.18 460.32,302.91 458.82,308.95 457.90,315.16 457.60,321.38 457.90,327.46 458.82,333.25 460.32,338.60 462.37,343.39 464.92,347.50 467.90,350.82 471.24,353.27 474.86,354.80 478.68,355.36 482.58,354.95 486.49,353.56 490.31,351.24 493.93,348.05 497.27,344.05 500.25,339.36 502.80,334.08 504.85,328.35 506.35,322.31 507.26,316.10" fill="#6ba4f1" stroke="#6ba4f1" stroke-width="1.5" />
    </g>
  </g>
  <g id="head">
    <g stroke="#0b1641" stroke-width="16" stroke-linejoin="round" fill="none">
      <polygon points="348.78,258.06 411.24,267.27 471.22,253.46 408.75,244.26" />
      <polygon points="348.78,258.06 408.75,244.26 408.75,197.08 348.78,210.88" />
      <polygon points="408.75,244.26 471.22,253.46 471.22,206.28 408.75,197.08" />
    </g>
    <g stroke-linejoin="round">
      <polygon points="348.78,258.06 411.24,267.27 471.22,253.46 408.75,244.26" fill="#457bbd" stroke="#457bbd" stroke-width="1.5" />
      <polygon points="348.78,258.06 408.75,244.26 408.75,197.08 348.78,210.88" fill="#6ba4f1" stroke="#6ba4f1" stroke-width="1.5" />
      <polygon points="408.75,244.26 471.22,253.46 471.22,206.28 408.75,197.08" fill="#6ba4f1" stroke="#6ba4f1" stroke-width="1.5" />
    </g>
  </g>
  <g id="eyes">
    <g stroke="#0b1641" stroke-width="16" stroke-linejoin="round" fill="none">
      <polygon points="447.98,226.26 448.34,223.40 449.41,220.92 451.07,219.08 453.16,218.05 455.47,217.93 457.79,218.73 459.88,220.38 461.54,222.71 462.60,225.50 462.97,228.47 462.60,231.33 461.54,233.80 459.88,235.65 457.79,236.68 455.47,236.80 453.16,236.00 451.07,234.35 449.41,232.02 448.34,229.23" />
      <polygon points="417.99,221.84 418.36,218.98 419.42,216.50 421.08,214.66 423.17,213.63 425.49,213.51 427.80,214.31 429.89,215.96 431.55,218.29 432.62,221.08 432.98,224.05 432.62,226.91 431.55,229.38 429.89,231.23 427.80,232.26 425.49,232.38 423.17,231.58 421.08,229.93 419.42,227.60 418.36,224.81" />
    </g>
    <g stroke-linejoin="round">
      <polygon points="447.98,226.26 448.34,223.40 449.41,220.92 451.07,219.08 453.16,218.05 455.47,217.93 457.79,218.73 459.88,220.38 461.54,222.71 462.60,225.50 462.97,228.47 462.60,231.33 461.54,233.80 459.88,235.65 457.79,236.68 455.47,236.80 453.16,236.00 451.07,234.35 449.41,232.02 448.34,229.23" fill="white" stroke="white" stroke-width="1.5" />
      <polygon points="417.99,221.84 418.36,218.98 419.42,216.50 421.08,214.66 423.17,213.63 425.49,213.51 427.80,214.31 429.89,215.96 431.55,218.29 432.62,221.08 432.98,224.05 432.62,226.91 431.55,229.38 429.89,231.23 427.80,232.26 425.49,232.38 423.17,231.58 421.08,229.93 419.42,227.60 418.36,224.81" fill="white" stroke="white" stroke-width="1.5" />
    </g>
  </g>
  <g id="body">
    <g stroke="#0b1641" stroke-width="16" stroke-linejoin="round" fill="none">
      <polygon points="310.04,333.29 410.00,348.02 479.96,331.91 380.01,317.18" />
      <polygon points="390.00,264.56 489.96,279.29 479.96,269.01 380.01,254.28" />
      <polygon points="380.01,317.18 479.96,331.91 489.96,317.03 390.00,302.30" />
      <polygon points="390.00,302.30 489.96,317.03 489.96,279.29 390.00,264.56" />
      <polygon points="310.04,333.29 380.01,317.18 390.00,302.30 390.00,264.56 380.01,254.28 310.04,270.39" />
    </g>
    <g stroke-linejoin="round">
      <polygon points="310.04,333.29 410.00,348.02 479.96,331.91 380.01,317.18" fill="#457bbd" stroke="#457bbd" stroke-width="1.5" />
      <polygon points="390.00,264.56 489.96,279.29 479.96,269.01 380.01,254.28" fill="#6ba4f1" stroke="#6ba4f1" stroke-width="1.5" />
      <polygon points="380.01,317.18 479.96,331.91 489.96,317.03 390.00,302.30" fill="#457bbd" stroke="#457bbd" stroke-width="1.5" />
      <polygon points="390.00,302.30 489.96,317.03 489.96,279.29 390.00,264.56" fill="#6ba4f1" stroke="#6ba4f1" stroke-width="1.5" />
      <polygon points="310.04,333.29 380.01,317.18 390.00,302.30 390.00,264.56 380.01,254.28 310.04,270.39" fill="#6ba4f1" stroke="#6ba4f1" stroke-width="1.5" />
    </g>
  </g>
  <g id="wheel_br">
    <g stroke="#0b1641" stroke-width="16" stroke-linejoin="round" fill="none">
      <polygon points="279.93,315.02 280.24,308.80 281.16,302.59 282.66,296.54 284.71,290.81 287.25,285.53 290.23,280.84 293.58,276.85 297.20,273.65 301.01,271.33 304.92,269.95 308.83,269.53 333.82,273.21 337.63,273.78 341.25,275.30 344.60,277.76 347.58,281.08 350.12,285.18 352.17,289.97 353.67,295.33 354.59,301.11 354.90,307.19 354.59,313.41 353.67,319.62 352.17,325.67 350.12,331.40 347.58,336.68 344.60,341.37 341.25,345.36 337.63,348.56 333.82,350.88 329.91,352.26 326.00,352.68 301.01,349.00 297.20,348.43 293.58,346.91 290.23,344.45 287.25,341.13 284.71,337.03 282.66,332.24 281.16,326.88 280.24,321.10" />
      <polygon points="329.91,303.51 329.60,297.43 328.69,291.64 327.19,286.29 325.14,281.50 322.59,277.40 319.61,274.08 316.27,271.62 312.64,270.09 308.83,269.53 304.92,269.95 301.01,271.33 297.20,273.65 293.58,276.85 290.23,280.84 287.25,285.53 284.71,290.81 282.66,296.54 281.16,302.59 280.24,308.80 279.93,315.02 280.24,321.10 281.16,326.88 282.66,332.24 284.71,337.03 287.25,341.13 290.23,344.45 293.58,346.91 297.20,348.43 301.01,349.00 304.92,348.58 308.83,347.20 312.64,344.88 316.27,341.68 319.61,337.69 322.59,333.00 325.14,327.72 327.19,321.99 328.69,315.94 329.60,309.73" />
    </g>
    <g stroke-linejoin="round">
      <polygon points="279.93,315.02 280.24,308.80 281.16,302.59 282.66,296.54 284.71,290.81 287.25,285.53 290.23,280.84 293.58,276.85 297.20,273.65 301.01,271.33 304.92,269.95 308.83,269.53 333.82,273.21 337.63,273.78 341.25,275.30 344.60,277.76 347.58,281.08 350.12,285.18 352.17,289.97 353.67,295.33 354.59,301.11 354.90,307.19 354.59,313.41 353.67,319.62 352.17,325.67 350.12,331.40 347.58,336.68 344.60,341.37 341.25,345.36 337.63,348.56 333.82,350.88 329.91,352.26 326.00,352.68 301.01,349.00 297.20,348.43 293.58,346.91 290.23,344.45 287.25,341.13 284.71,337.03 282.66,332.24 281.16,326.88 280.24,321.10" fill="#457bbd" stroke="#457bbd" stroke-width="1.5" />
      <polygon points="329.91,303.51 329.60,297.43 328.69,291.64 327.19,286.29 325.14,281.50 322.59,277.40 319.61,274.08 316.27,271.62 312.64,270.09 308.83,269.53 304.92,269.95 301.01,271.33 297.20,273.65 293.58,276.85 290.23,280.84 287.25,285.53 284.71,290.81 282.66,296.54 281.16,302.59 280.24,308.80 279.93,315.02 280.24,321.10 281.16,326.88 282.66,332.24 284.71,337.03 287.25,341.13 290.23,344.45 293.58,346.91 297.20,348.43 301.01,349.00 304.92,348.58 308.83,347.20 312.64,344.88 316.27,341.68 319.61,337.69 322.59,333.00 325.14,327.72 327.19,321.99 328.69,315.94 329.60,309.73" fill="#6ba4f1" stroke="#6ba4f1" stroke-width="1.5" />
    </g>
  </g>
  <g id="wheel_fr">
    <g stroke="#0b1641" stroke-width="16" stroke-linejoin="round" fill="none">
      <polygon points="332.41,302.94 332.72,296.71 333.63,290.50 335.13,284.46 337.18,278.73 339.73,273.45 342.71,268.76 346.05,264.76 349.67,261.57 353.49,259.25 357.40,257.87 361.30,257.45 386.29,261.13 390.11,261.69 393.73,263.22 397.07,265.68 400.05,269.00 402.60,273.10 404.65,277.89 406.15,283.24 407.06,289.03 407.37,295.11 407.06,301.33 406.15,307.54 404.65,313.59 402.60,319.32 400.05,324.60 397.07,329.29 393.73,333.28 390.11,336.48 386.29,338.80 382.38,340.18 378.47,340.60 353.49,336.91 349.67,336.35 346.05,334.82 342.71,332.37 339.73,329.05 337.18,324.95 335.13,320.16 333.63,314.80 332.72,309.01" />
      <polygon points="382.38,291.43 382.08,285.35 381.16,279.56 379.66,274.21 377.61,269.42 375.06,265.31 372.08,261.99 368.74,259.54 365.12,258.01 361.30,257.45 357.40,257.87 353.49,259.25 349.67,261.57 346.05,264.76 342.71,268.76 339.73,273.45 337.18,278.73 335.13,284.46 333.63,290.50 332.72,296.71 332.41,302.94 332.72,309.01 333.63,314.80 335.13,320.16 337.18,324.95 339.73,329.05 342.71,332.37 346.05,334.82 349.67,336.35 353.49,336.91 357.40,336.50 361.30,335.11 365.12,332.79 368.74,329.60 372.08,325.61 375.06,320.91 377.61,315.64 379.66,309.90 381.16,303.86 382.08,297.65" />
    </g>
    <g stroke-linejoin="round">
      <polygon points="332.41,302.94 332.72,296.71 333.63,290.50 335.13,284.46 337.18,278.73 339.73,273.45 342.71,268.76 346.05,264.76 349.67,261.57 353.49,259.25 357.40,257.87 361.30,257.45 386.29,261.13 390.11,261.69 393.73,263.22 397.07,265.68 400.05,269.00 402.60,273.10 404.65,277.89 406.15,283.24 407.06,289.03 407.37,295.11 407.06,301.33 406.15,307.54 404.65,313.59 402.60,319.32 400.05,324.60 397.07,329.29 393.73,333.28 390.11,336.48 386.29,338.80 382.38,340.18 378.47,340.60 353.49,336.91 349.67,336.35 346.05,334.82 342.71,332.37 339.73,329.05 337.18,324.95 335.13,320.16 333.63,314.80 332.72,309.01" fill="#457bbd" stroke="#457bbd" stroke-width="1.5" />
      <polygon points="382.38,291.43 382.08,285.35 381.16,279.56 379.66,274.21 377.61,269.42 375.06,265.31 372.08,261.99 368.74,259.54 365.12,258.01 361.30,257.45 357.40,257.87 353.49,259.25 349.67,261.57 346.05,264.76 342.71,268.76 339.73,273.45 337.18,278.73 335.13,284.46 333.63,290.50 332.72,296.71 332.41,302.94 332.72,309.01 333.63,314.80 335.13,320.16 337.18,324.95 339.73,329.05 342.71,332.37 346.05,334.82 349.67,336.35 353.49,336.91 357.40,336.50 361.30,335.11 365.12,332.79 368.74,329.60 372.08,325.61 375.06,320.91 377.61,315.64 379.66,309.90 381.16,303.86 382.08,297.65" fill="#6ba4f1" stroke="#6ba4f1" stroke-width="1.5" />
    </g>
  </g>
</svg>