<svg xmlns="http://www.w3.org/2000/svg" viewBox="0 0 800 600">
<polygon points="410.12,346.59 410.37,341.79 411.10,336.90 412.30,332.03 413.94,327.30 415.98,322.83 418.36,318.73 421.03,315.10 423.93,312.03 426.98,309.60 430.11,307.86 433.24,306.85 436.29,306.61 439.19,307.14 464.17,314.16 466.85,315.44 469.23,317.45 471.27,320.13 472.91,323.42 474.11,327.24 474.84,331.49 475.09,336.07 474.84,340.86 474.11,345.75 472.91,350.62 471.27,355.35 469.23,359.82 466.85,363.92 464.17,367.55 461.28,370.62 458.23,373.06 455.10,374.80 451.97,375.80 448.92,376.04 446.02,375.52 421.03,368.50 418.36,367.22 415.98,365.21 413.94,362.53 412.30,359.24 411.10,355.42 410.37,351.17" fill="#add8e6" stroke="black" stroke-width="6" stroke-linejoin="round"/>
<polygon points="450.10,329.05 450.35,324.25 451.08,319.36 452.28,314.49 453.92,309.76 455.96,305.29 458.34,301.19 461.02,297.56 463.91,294.49 466.96,292.06 470.09,290.31 473.22,289.31 476.27,289.07 479.17,289.60 504.15,296.62 506.83,297.90 509.21,299.91 511.25,302.59 512.89,305.88 514.09,309.70 514.82,313.95 515.07,318.53 514.82,323.32 514.09,328.21 512.89,333.08 511.25,337.81 509.21,342.28 506.83,346.38 504.15,350.01 501.26,353.08 498.21,355.52 495.08,357.26 491.95,358.26 488.90,358.50 486.00,357.98 461.02,350.96 458.34,349.68 455.96,347.67 453.92,344.99 452.28,341.70 451.08,337.88 450.35,333.63" fill="#add8e6" stroke="black" stroke-width="6" stroke-linejoin="round"/>
<polygon points="475.09,336.07 474.84,331.49 474.11,327.24 472.91,323.42 471.27,320.13 469.23,317.45 466.85,315.44 464.17,314.16 461.28,313.63 458.23,313.87 455.10,314.87 451.97,316.61 448.92,319.05 446.02,322.12 443.35,325.75 440.96,329.85 438.93,334.32 437.29,339.05 436.09,343.92 435.35,348.81 435.11,353.61 435.35,358.18 436.09,362.44 437.29,366.25 438.93,369.54 440.96,372.22 443.35,374.23 446.02,375.52 448.92,376.04 451.97,375.80 455.10,374.80 458.23,373.06 461.28,370.62 464.17,367.55 466.85,363.92 469.23,359.82 471.27,355.35 472.91,350.62 474.11,345.75 474.84,340.86" fill="#add8e6" stroke="black" stroke-width="6" stroke-linejoin="round"/>
<polygon points="515.07,318.53 514.82,313.95 514.09,309.70 512.89,305.88 511.25,302.59 509.21,299.91 506.83,297.90 504.15,296.62 501.26,296.09 498.21,296.33 495.08,297.33 491.95,299.07 488.90,301.51 486.00,304.58 483.33,308.21 480.94,312.31 478.91,316.78 477.27,321.51 476.07,326.38 475.33,331.27 475.09,336.07 475.33,340.64 476.07,344.90 477.27,348.71 478.91,352.00 480.94,354.68 483.33,356.69 486.00,357.98 488.90,358.50 491.95,358.26 495.08,357.26 498.21,355.52 501.26,353.08 504.15,350.01 506.83,346.38 509.21,342.28 511.25,337.81 512.89,333.08 514.09,328.21 514.82,323.32" fill="#add8e6" stroke="black" stroke-width="6" stroke-linejoin="round"/>
<polygon points="368.77,261.27 431.23,278.81 471.22,261.27 408.75,243.73" fill="#add8e6" stroke="black" stroke-width="6" stroke-linejoin="round"/>
<polygon points="368.77,261.27 408.75,243.73 408.75,183.80 368.77,201.34" fill="#add8e6" stroke="black" stroke-width="6" stroke-linejoin="round"/>
<polygon points="408.75,243.73 471.22,261.27 471.22,201.34 408.75,183.80" fill="#add8e6" stroke="black" stroke-width="6" stroke-linejoin="round"/>
<polygon points="310.04,333.47 410.00,361.54 479.96,330.84 380.01,302.78" fill="#add8e6" stroke="black" stroke-width="6" stroke-linejoin="round"/>
<polygon points="390.00,250.45 489.96,278.51 479.96,270.91 380.01,242.85" fill="#add8e6" stroke="black" stroke-width="6" stroke-linejoin="round"/>
<polygon points="390.00,286.41 489.96,314.47 489.96,278.51 390.00,250.45" fill="#add8e6" stroke="black" stroke-width="6" stroke-linejoin="round"/>
<polygon points="310.04,333.47 380.01,302.78 390.00,286.41 390.00,250.45 380.01,242.85 310.04,273.54" fill="#add8e6" stroke="black" stroke-width="6" stroke-linejoin="round"/>
<polygon points="380.01,302.78 479.96,330.84 489.96,314.47 390.00,286.41" fill="#add8e6" stroke="black" stroke-width="6" stroke-linejoin="round"/>
<polygon points="284.93,311.44 285.18,306.64 285.91,301.75 287.11,296.88 288.75,292.15 290.79,287.68 293.17,283.58 295.85,279.95 298.74,276.88 301.79,274.45 304.92,272.70 308.05,271.70 311.10,271.46 314.00,271.99 338.98,279.01 341.66,280.29 344.04,282.30 346.08,284.98 347.72,288.27 348.92,292.08 349.65,296.34 349.90,300.92 349.65,305.71 348.92,310.60 347.72,315.47 346.08,320.20 344.04,324.67 341.66,328.77 338.98,332.40 336.09,335.47 333.04,337.91 329.91,339.65 326.78,340.65 323.73,340.89 320.83,340.36 295.85,333.35 293.17,332.07 290.79,330.06 288.75,327.38 287.11,324.09 285.91,320.27 285.18,316.02" fill="#add8e6" stroke="black" stroke-width="6" stroke-linejoin="round"/>
<polygon points="324.91,293.90 325.16,289.10 325.89,284.21 327.09,279.34 328.73,274.61 330.77,270.14 333.15,266.04 335.83,262.41 338.72,259.34 341.77,256.91 344.90,255.16 348.03,254.16 351.08,253.92 353.98,254.45 378.97,261.47 381.64,262.75 384.02,264.76 386.06,267.44 387.70,270.73 388.90,274.54 389.63,278.80 389.88,283.37 389.63,288.17 388.90,293.06 387.70,297.93 386.06,302.66 384.02,307.13 381.64,311.23 378.97,314.86 376.07,317.93 373.02,320.37 369.89,322.11 366.76,323.11 363.71,323.35 360.81,322.82 335.83,315.81 333.15,314.53 330.77,312.52 328.73,309.84 327.09,306.55 325.89,302.73 325.16,298.48" fill="#add8e6" stroke="black" stroke-width="6" stroke-linejoin="round"/>
<polygon points="324.91,293.90 324.67,289.32 323.93,285.07 322.73,281.25 321.09,277.96 319.06,275.28 316.67,273.27 314.00,271.99 311.10,271.46 308.05,271.70 304.92,272.70 301.79,274.45 298.74,276.88 295.85,279.95 293.17,283.58 290.79,287.68 288.75,292.15 287.11,296.88 285.91,301.75 285.18,306.64 284.93,311.44 285.18,316.02 285.91,320.27 287.11,324.09 288.75,327.38 290.79,330.06 293.17,332.07 295.85,333.35 298.74,333.88 301.79,333.64 304.92,332.63 308.05,330.89 311.10,328.46 314.00,325.39 316.67,321.76 319.06,317.66 321.09,313.19 322.73,308.46 323.93,303.59 324.67,298.69" fill="#add8e6" stroke="black" stroke-width="6" stroke-linejoin="round"/>
<polygon points="364.89,276.36 364.65,271.78 363.91,267.53 362.71,263.71 361.07,260.42 359.04,257.74 356.65,255.73 353.98,254.45 351.08,253.92 348.03,254.16 344.90,255.16 341.77,256.91 338.72,259.34 335.83,262.41 333.15,266.04 330.77,270.14 328.73,274.61 327.09,279.34 325.89,284.21 325.16,289.10 324.91,293.90 325.16,298.48 325.89,302.73 327.09,306.55 328.73,309.84 330.77,312.52 333.15,314.53 335.83,315.81 338.72,316.34 341.77,316.10 344.90,315.09 348.03,313.35 351.08,310.92 353.98,307.85 356.65,304.22 359.04,300.12 361.07,295.65 362.71,290.92 363.91,286.05 364.65,281.15" fill="#add8e6" stroke="black" stroke-width="6" stroke-linejoin="round"/>
<polygon points="447.98,224.42 448.34,221.74 449.41,219.53 451.07,218.01 453.16,217.32 455.47,217.53 457.79,218.62 459.88,220.49 461.54,222.94 462.60,225.75 462.97,228.63 462.60,231.30 461.54,233.51 459.88,235.03 457.79,235.72 455.47,235.51 453.16,234.42 451.07,232.56 449.41,230.10 448.34,227.30" fill="white" stroke="black" stroke-width="4" stroke-linejoin="round"/>
<polygon points="417.99,216.00 418.36,213.32 419.42,211.12 421.08,209.59 423.17,208.90 425.49,209.11 427.80,210.20 429.89,212.07 431.55,214.52 432.62,217.33 432.98,220.21 432.62,222.88 431.55,225.09 429.89,226.61 427.80,227.30 425.49,227.09 423.17,226.00 421.08,224.14 419.42,221.68 418.36,218.88" fill="white" stroke="black" stroke-width="4" stroke-linejoin="round"/>
</svg>