<svg xmlns="http://www.w3.org/2000/svg" viewBox="-28 -48 56 96" role="img" aria-labelledby="queryable-title queryable-desc">
  <title id="queryable-title">Queryable icon</title>
  <desc id="queryable-desc">A reusable Zenoh queryable service tower used as a query/reply endpoint.</desc>
  <defs>
    <linearGradient id="queryable-fill" x1="0" x2="1" y1="0" y2="1">
      <stop offset="0" stop-color="#30a9dc"/>
      <stop offset="1" stop-color="#0b5685"/>
    </linearGradient>
  </defs>
  <g id="queryable">
    <path d="M-17,-38 L12,-46 L24,39 L-24,39Z" fill="url(#queryable-fill)" stroke="#07315f" stroke-width="3" stroke-linejoin="round"/>
    <path d="M-10,-31 L9,-35 L16,31 L-14,31Z" fill="#07315f" opacity=".9"/>
    <g stroke-linecap="round">
      <path d="M-5,-25 L8,-27" stroke="#49ca50" stroke-width="2"/>
      <path d="M-6,-17 L9,-19" stroke="#49ca50" stroke-width="2"/>
      <path d="M-8,-9 L10,-11" stroke="#49ca50" stroke-width="2"/>
      <path d="M-9,-1 L11,-3" stroke="#49ca50" stroke-width="2"/>
      <path d="M-10,7 L12,5" stroke="#49ca50" stroke-width="2"/>
      <path d="M-12,15 L13,13" stroke="#49ca50" stroke-width="2"/>
      <circle cx="-10" cy="-24" r="1.5" fill="#f7c400"/>
      <circle cx="-11" cy="-16" r="1.5" fill="#f7c400"/>
      <circle cx="-13" cy="-8" r="1.5" fill="#f7c400"/>
      <circle cx="-14" cy="0" r="1.5" fill="#f7c400"/>
      <circle cx="-15" cy="8" r="1.5" fill="#f7c400"/>
      <circle cx="-16" cy="16" r="1.5" fill="#f7c400"/>
    </g>
  </g>
</svg>
