<svg xmlns="http://www.w3.org/2000/svg" viewBox="-46 -30 92 76" role="img" aria-labelledby="robot-title robot-desc">
  <title id="robot-title">Robot endpoint icon</title>
  <desc id="robot-desc">A reusable blue robot endpoint used for publisher and subscriber participants.</desc>
  <defs>
    <linearGradient id="robot-fill" x1="0" x2="0" y1="0" y2="1">
      <stop offset="0" stop-color="#5bbcff"/>
      <stop offset="1" stop-color="#1f78c9"/>
    </linearGradient>
  </defs>
  <g id="robot" stroke="#092b5c" stroke-width="3.4" stroke-linejoin="round" stroke-linecap="round">
    <ellipse cx="-34" cy="21" rx="10" ry="14" fill="#59baff"/>
    <ellipse cx="-13" cy="19" rx="11" ry="18" fill="#59baff"/>
    <ellipse cx="12" cy="37" rx="10" ry="6" fill="#49aff5"/>
    <ellipse cx="34" cy="24" rx="10" ry="14" fill="#55b8ff"/>
    <polygon points="-24,3 34,8 34,27 -19,28" fill="url(#robot-fill)"/>
    <polygon points="-34,0 -24,3 -19,28 -32,27" fill="#56b8fb"/>
    <polygon points="-24,3 34,8 24,2 -31,-3" fill="#5dbfff"/>
    <polygon points="24,2 39,8 34,27 34,8" fill="#2f90cf"/>
    <polygon points="-24,-12 -7,-24 17,-23 34,-13 29,5 -23,4" fill="#2f93d2"/>
    <polygon points="-23,-11 -8,-21 4,-21 2,3 -23,4" fill="#59baff"/>
    <polygon points="4,-21 16,-20 30,-12 28,4 2,3" fill="#2e8fcc"/>
    <polygon points="-23,4 29,5 24,11 -20,10" fill="#092b5c" stroke="none" opacity=".55"/>
    <ellipse cx="14" cy="-10" rx="3.6" ry="4.1" fill="#eefaff" stroke-width="2.5"/>
    <ellipse cx="26" cy="-9" rx="3.6" ry="4.1" fill="#eefaff" stroke-width="2.5"/>
  </g>
</svg>
