<svg xmlns="http://www.w3.org/2000/svg" viewBox="-46 -28 92 74" role="img" aria-labelledby="robot-title robot-desc">
  <title id="robot-title">Robot endpoint icon</title>
  <desc id="robot-desc">A reusable blue robot endpoint used for publisher and subscriber participants.</desc>
  <defs>
    <linearGradient id="robot-fill" x1="0" x2="0" y1="0" y2="1">
      <stop offset="0" stop-color="#5bbcff"/>
      <stop offset="1" stop-color="#1f78c9"/>
    </linearGradient>
  </defs>
  <g id="robot" stroke="#092b5c" stroke-width="3.4" stroke-linejoin="round" stroke-linecap="round">
    <path d="M-38,10 C-36,1 -28,-4 -18,-4 H-13 C-7,-4 -3,1 -3,8 V25 C-3,32 -8,36 -15,36 H-28 C-36,36 -42,30 -42,21 V18 C-42,15 -41,12 -38,10Z" fill="#57b9ff"/>
    <path d="M22,8 H30 C38,8 43,14 43,23 V26 C43,33 38,37 31,37 H20 C14,37 10,32 10,26 V17 C10,11 15,8 22,8Z" fill="#55b8ff"/>
    <path d="M5,29 H21 C25,29 28,32 28,36 C28,40 25,42 20,42 H7 C2,42 -2,39 -2,35 C-2,31 1,29 5,29Z" fill="#4ab2f7"/>
    <path d="M-11,1 H27 C35,1 40,7 40,16 V26 C40,31 36,34 30,34 H-11 C-18,34 -23,28 -23,20 V15 C-23,7 -18,1 -11,1Z" fill="url(#robot-fill)"/>
    <path d="M-24,3 H-11 C-3,3 2,9 2,18 V23 C2,31 -3,37 -11,37 H-22 C-29,37 -34,31 -34,23 V17 C-34,9 -30,3 -24,3Z" fill="#59bbff"/>
    <path d="M-11,4 C-5,8 -4,32 -11,36" fill="none" stroke="#2795dc" stroke-width="1.7"/>
    <path d="M-24,9 L30,9 L27,15 L-23,15Z" fill="#092b5c" stroke="none" opacity=".55"/>
    <path d="M-24,-12 L-10,-24 H17 L35,-16 V7 L31,12 H-22 Z" fill="#2f93d2"/>
    <path d="M-20,-11 L-9,-20 H5 L4,7 L-20,7Z" fill="#55b8ff" stroke="none" opacity=".72"/>
    <path d="M5,-20 H16 L31,-14 V6 L5,7Z" fill="#2d8fcf" stroke="none" opacity=".8"/>
    <path d="M5,-20 L5,7" fill="none" stroke="#1f7fc2" stroke-width="1.5"/>
    <circle cx="15" cy="-10" r="3.4" fill="#eefaff" stroke-width="2.5"/>
    <circle cx="27" cy="-9" r="3.4" fill="#eefaff" stroke-width="2.5"/>
  </g>
</svg>
