<svg xmlns="http://www.w3.org/2000/svg" viewBox="0 0 112 46" role="img" aria-labelledby="zetta-scale-logo-title zetta-scale-logo-desc">
  <title id="zetta-scale-logo-title">Zetta Scale logo</title>
  <desc id="zetta-scale-logo-desc">A reusable Zetta Scale logo mark and wordmark.</desc>
  <g id="zetta-scale-logo">
    <path fill="#147dff" fill-rule="evenodd" d="M8 5 C5.8 5 4.1 5.8 2.6 7.3 L0 10.1 V18.4 C0 21.1 1.6 23.2 4.2 24.5 L6.8 25.8 L3.4 29.2 C1.2 31.4 0 34.2 0 37.4 V42 H27.2 C30.2 42 32.5 41.1 34.2 39.3 C36 37.5 37 35.2 37 32.6 C37 29.2 35.2 26.1 32.1 24.2 L29.7 22.8 L32.5 20.1 C35.5 17.2 37 13.7 37 9.6 V5 H8 Z M9 10.2 H31.5 C31.3 12.6 30.3 14.6 28.4 16.4 L24.7 20 H8.8 C6.2 20 4.2 18.3 4.2 15.8 V14.2 C4.2 12.2 6.4 10.2 9 10.2 Z M6.6 36.9 L13.2 30.4 C15 28.8 17.2 28 19.8 28 H27.4 C30.4 28 32.7 30 32.7 32.6 C32.7 35.1 30.3 36.9 27.2 36.9 H6.6 Z"/>
    <path fill="#0b1641" d="M45 15.3 53.14 7.14V7.08H45.38V4.19H57.73V7.47L49.5 15.75H58.11V18.64H45ZM63.11 12.68Q63.3 14.3 64.44 15.21Q65.58 16.11 67.2 16.11Q68.62 16.11 69.59 15.55Q70.55 15 71.28 14.15L74 16.11Q72.67 17.68 71.03 18.34Q69.38 19 67.58 19Q65.87 19 64.35 18.46Q62.83 17.92 61.72 16.92Q60.61 15.93 59.96 14.53Q59.31 13.13 59.31 11.41Q59.31 9.7 59.96 8.3Q60.61 6.9 61.72 5.9Q62.83 4.91 64.35 4.37Q65.87 3.82 67.58 3.82Q69.16 3.82 70.47 4.35Q71.79 4.88 72.72 5.87Q73.66 6.87 74.18 8.33Q74.7 9.79 74.7 11.68V12.68ZM70.9 9.97Q70.87 8.37 69.86 7.45Q68.84 6.53 67.04 6.53Q65.33 6.53 64.33 7.47Q63.33 8.4 63.11 9.97ZM75.21 7.26V4.19H78.34V0H82.14V4.19H86.32V7.26H82.14V13.58Q82.14 14.66 82.57 15.3Q83 15.93 84.26 15.93Q84.77 15.93 85.37 15.82Q85.97 15.72 86.32 15.48V18.52Q85.72 18.79 84.85 18.89Q83.98 19 83.31 19Q81.79 19 80.83 18.68Q79.86 18.37 79.31 17.72Q78.75 17.07 78.55 16.11Q78.34 15.15 78.34 13.88V7.26ZM86.26 7.26V4.19H89.39V0H93.19V4.19H97.37V7.26H93.19V13.58Q93.19 14.66 93.62 15.3Q94.05 15.93 95.31 15.93Q95.82 15.93 96.42 15.82Q97.02 15.72 97.37 15.48V18.52Q96.77 18.79 95.9 18.89Q95.03 19 94.36 19Q92.84 19 91.88 18.68Q90.91 18.37 90.36 17.72Q89.8 17.07 89.6 16.11Q89.39 15.15 89.39 13.88V7.26ZM108.58 16.65H108.49Q107.66 17.89 106.4 18.44Q105.13 19 103.61 19Q102.56 19 101.57 18.73Q100.57 18.46 99.79 17.92Q99.02 17.37 98.54 16.56Q98.07 15.75 98.07 14.66Q98.07 13.49 98.51 12.66Q98.95 11.83 99.7 11.28Q100.44 10.72 101.42 10.39Q102.41 10.06 103.47 9.89Q104.53 9.73 105.6 9.68Q106.68 9.64 107.63 9.64H108.58V9.24Q108.58 7.89 107.6 7.21Q106.62 6.53 105.1 6.53Q103.89 6.53 102.85 6.94Q101.8 7.35 101.04 8.04L99.05 6.14Q100.32 4.91 102.01 4.37Q103.7 3.82 105.51 3.82Q107.12 3.82 108.23 4.17Q109.34 4.52 110.07 5.06Q110.8 5.6 111.19 6.31Q111.59 7.02 111.76 7.74Q111.94 8.46 111.97 9.14Q112 9.82 112 10.33V18.64H108.58ZM108.36 12.16H107.57Q106.78 12.16 105.79 12.23Q104.81 12.29 103.94 12.51Q103.07 12.74 102.47 13.17Q101.87 13.61 101.87 14.39Q101.87 14.9 102.11 15.25Q102.34 15.6 102.72 15.84Q103.1 16.08 103.58 16.18Q104.05 16.29 104.53 16.29Q106.49 16.29 107.42 15.4Q108.36 14.51 108.36 12.98Z"/>
    <path fill="#0b1641" d="M54.82 33.4Q54.28 32.93 53.49 32.61Q52.7 32.3 51.56 32.3Q50.48 32.3 49.69 32.61Q48.9 32.93 48.9 33.54Q48.9 34.03 49.35 34.34Q49.81 34.64 50.43 34.83Q51.05 35.02 51.76 35.11Q52.46 35.2 52.97 35.27Q53.94 35.44 54.8 35.67Q55.66 35.91 56.28 36.28Q56.9 36.66 57.25 37.2Q57.61 37.73 57.61 38.51Q57.61 39.45 57.04 40.11Q56.46 40.78 55.56 41.2Q54.65 41.62 53.49 41.81Q52.33 42 51.15 42Q49.17 42 47.67 41.58Q46.18 41.16 45 40.03L47.29 38.72Q48.03 39.23 48.93 39.63Q49.84 40.03 51.15 40.03Q51.72 40.03 52.31 39.95Q52.9 39.87 53.35 39.69Q53.81 39.52 54.09 39.25Q54.38 38.98 54.38 38.62Q54.38 38.16 53.96 37.85Q53.54 37.55 52.95 37.37Q52.36 37.2 51.71 37.09Q51.05 36.98 50.55 36.91Q49.57 36.75 48.7 36.54Q47.82 36.33 47.15 35.98Q46.48 35.62 46.08 35.09Q45.67 34.55 45.67 33.75Q45.67 32.88 46.19 32.24Q46.71 31.59 47.57 31.17Q48.43 30.75 49.52 30.54Q50.61 30.33 51.72 30.33Q53.34 30.33 54.82 30.75Q56.3 31.17 57.17 32.16ZM71.15 33.56Q70.31 32.95 69.39 32.64Q68.47 32.32 67.19 32.32Q65.94 32.32 65.02 32.64Q64.09 32.95 63.47 33.5Q62.85 34.05 62.53 34.77Q62.21 35.48 62.21 36.26Q62.21 37.03 62.58 37.72Q62.95 38.41 63.62 38.93Q64.3 39.45 65.24 39.74Q66.18 40.03 67.36 40.03Q68.63 40.03 69.54 39.71Q70.45 39.4 71.22 38.79L73.37 40.29Q72.2 41.2 70.63 41.6Q69.07 42 67.32 42Q65.47 42 63.94 41.58Q62.41 41.16 61.3 40.39Q60.2 39.63 59.59 38.57Q58.98 37.5 58.98 36.21Q58.98 34.92 59.59 33.84Q60.2 32.77 61.29 31.99Q62.38 31.22 63.91 30.79Q65.44 30.35 67.32 30.35Q69.07 30.35 70.67 30.79Q72.26 31.22 73.44 32.11ZM74.52 31.97Q75.79 31.15 77.47 30.74Q79.16 30.33 80.84 30.33Q82.58 30.33 83.85 30.63Q85.11 30.94 85.91 31.45Q86.72 31.97 87.11 32.64Q87.49 33.3 87.49 34.03V39.7Q87.49 40.29 87.53 40.78Q87.56 41.27 87.63 41.72H84.94Q84.84 40.88 84.84 40.03H84.77Q83.76 41.11 82.38 41.55Q81 42 79.19 42Q78.08 42 77.07 41.79Q76.06 41.58 75.31 41.16Q74.55 40.73 74.11 40.11Q73.68 39.49 73.68 38.67Q73.68 37.59 74.37 36.87Q75.05 36.14 76.25 35.68Q77.44 35.23 79.04 35.03Q80.63 34.83 82.45 34.83H84.67V34.36Q84.67 33.94 84.43 33.52Q84.2 33.09 83.73 32.75Q83.26 32.41 82.55 32.21Q81.84 32.02 80.87 32.02Q80 32.02 79.34 32.13Q78.68 32.25 78.15 32.43Q77.61 32.6 77.17 32.84Q76.74 33.07 76.33 33.28ZM83.06 36.38Q81.98 36.38 80.85 36.46Q79.73 36.54 78.8 36.77Q77.88 37.01 77.29 37.43Q76.7 37.85 76.7 38.51Q76.7 39.47 77.63 39.89Q78.55 40.31 80.13 40.31Q81.37 40.31 82.25 40.02Q83.12 39.73 83.66 39.26Q84.2 38.79 84.43 38.21Q84.67 37.64 84.67 37.08V36.38ZM90.62 24H93.64V41.72H90.62ZM99.23 36.94Q99.23 37.66 99.68 38.26Q100.13 38.86 100.87 39.28Q101.61 39.7 102.59 39.94Q103.56 40.17 104.6 40.17Q106.02 40.17 107.06 39.71Q108.1 39.26 108.97 38.51L111.26 39.73Q108.74 42 104.2 42Q102.32 42 100.79 41.55Q99.26 41.11 98.2 40.32Q97.14 39.54 96.57 38.47Q96 37.41 96 36.16Q96 34.92 96.62 33.86Q97.24 32.79 98.33 32Q99.43 31.22 100.94 30.77Q102.45 30.33 104.23 30.33Q106.35 30.33 107.81 30.84Q109.28 31.36 110.22 32.19Q111.16 33.02 111.58 34.07Q112 35.11 112 36.19V36.94ZM108.77 35.25Q108.74 34.55 108.45 33.96Q108.17 33.38 107.6 32.94Q107.02 32.51 106.17 32.26Q105.31 32.02 104.17 32.02Q103.06 32.02 102.13 32.31Q101.21 32.6 100.57 33.07Q99.93 33.54 99.58 34.11Q99.23 34.69 99.23 35.25Z"/>
  </g>
</svg>
