<svg xmlns="http://www.w3.org/2000/svg" viewBox="0 0 112 46" role="img" aria-labelledby="zetta-scale-logo-title zetta-scale-logo-desc">
  <title id="zetta-scale-logo-title">Zetta Scale logo</title>
  <desc id="zetta-scale-logo-desc">A reusable Zetta Scale logo mark and wordmark.</desc>
  <g id="zetta-scale-logo">
    <path fill="#147dff" fill-rule="evenodd" d="M3.36 3.03 C2.94 3.57 .64 7.39 .4 8.26 C.17 9.14 .08 13.82 .27 14.71 C.46 15.59 2.46 19.47 2.96 20.09 C3.46 20.71 6.93 22.49 7 22.97 C7.06 23.45 4.26 25.9 3.83 26.53 C3.41 27.17 1.62 30.65 1.35 31.39 C1.07 32.12 .24 35.52 .13 36.31 C.03 37.11 -.2 41.57 0 42 C2.03 42.2 24.87 42.07 27.18 42 C29.49 41.93 30.34 41.23 30.81 41.01 C31.28 40.8 33.02 39.63 33.43 39.12 C33.85 38.61 36.14 35.11 36.39 34.27 C36.65 33.42 36.94 28.71 36.8 27.82 C36.65 26.94 34.95 23.1 34.44 22.44 C33.93 21.78 30.07 19.6 30 19.03 C29.94 18.45 33.14 15.44 33.57 14.78 C34 14.13 35.46 11.42 35.72 10.31 C35.98 9.2 37.2 .77 37 0 C35.04 -.2 11.88 -.08 9.55 0 C7.23 .08 6.45 .83 5.99 1.06 C5.52 1.29 3.78 2.49 3.36 3.03 Z M4.71 13.72 C4.61 13.09 4.92 9.05 5.25 8.42 C5.58 7.78 7.05 5.48 9.08 5.23 C11.11 4.99 30.79 4.58 32.29 5.16 C33.79 5.73 29.63 12.06 29.13 12.89 C28.63 13.72 26.15 15.85 25.63 16.22 C25.11 16.6 23.45 17.74 22.2 17.89 C20.95 18.05 10.12 18.34 8.95 18.27 C7.78 18.2 6.91 17.25 6.59 16.91 C6.27 16.56 4.81 14.36 4.71 13.72 Z M32.29 28.43 C32.39 29.06 32.07 32.89 31.75 33.51 C31.44 34.13 30.15 36.44 28.12 36.69 C26.09 36.94 6.16 37.42 4.64 36.84 C3.12 36.27 7.37 29.87 7.87 29.04 C8.37 28.21 10.75 26.16 11.3 25.78 C11.85 25.4 13.97 24.12 15.2 23.96 C16.44 23.8 26.64 23.56 27.78 23.65 C28.93 23.74 30.14 24.81 30.47 25.17 C30.81 25.53 32.2 27.8 32.29 28.43 Z"/>
    <path fill="#0b1641" d="M45 15.3 52.74 7.14V7.08H45.36V4.19H57.1V7.47L49.28 15.75H57.47V18.64H45ZM62.83 12.68Q63.01 14.3 64.09 15.21Q65.17 16.11 66.71 16.11Q68.06 16.11 68.98 15.55Q69.9 15 70.59 14.15L73.18 16.11Q71.92 17.68 70.35 18.34Q68.79 19 67.07 19Q65.45 19 64 18.46Q62.55 17.92 61.5 16.92Q60.45 15.93 59.83 14.53Q59.21 13.13 59.21 11.41Q59.21 9.7 59.83 8.3Q60.45 6.9 61.5 5.9Q62.55 4.91 64 4.37Q65.45 3.82 67.07 3.82Q68.58 3.82 69.83 4.35Q71.08 4.88 71.96 5.87Q72.85 6.87 73.35 8.33Q73.85 9.79 73.85 11.68V12.68ZM70.23 9.97Q70.2 8.37 69.24 7.45Q68.28 6.53 66.56 6.53Q64.93 6.53 63.98 7.47Q63.04 8.4 62.83 9.97ZM74.93 7.26V4.19H77.91V0H81.52V4.19H85.5V7.26H81.52V13.58Q81.52 14.66 81.93 15.3Q82.34 15.93 83.54 15.93Q84.02 15.93 84.6 15.82Q85.17 15.72 85.5 15.48V18.52Q84.93 18.79 84.1 18.89Q83.27 19 82.64 19Q81.19 19 80.27 18.68Q79.36 18.37 78.83 17.72Q78.3 17.07 78.11 16.11Q77.91 15.15 77.91 13.88V7.26ZM86.04 7.26V4.19H89.02V0H92.64V4.19H96.61V7.26H92.64V13.58Q92.64 14.66 93.04 15.3Q93.45 15.93 94.65 15.93Q95.13 15.93 95.71 15.82Q96.28 15.72 96.61 15.48V18.52Q96.04 18.79 95.21 18.89Q94.38 19 93.75 19Q92.3 19 91.39 18.68Q90.47 18.37 89.94 17.72Q89.41 17.07 89.22 16.11Q89.02 15.15 89.02 13.88V7.26ZM107.87 16.65H107.78Q107 17.89 105.79 18.44Q104.59 19 103.14 19Q102.15 19 101.2 18.73Q100.25 18.46 99.52 17.92Q98.78 17.37 98.33 16.56Q97.87 15.75 97.87 14.66Q97.87 13.49 98.3 12.66Q98.72 11.83 99.43 11.28Q100.13 10.72 101.07 10.39Q102 10.06 103.01 9.89Q104.02 9.73 105.04 9.68Q106.06 9.64 106.97 9.64H107.87V9.24Q107.87 7.89 106.94 7.21Q106 6.53 104.56 6.53Q103.42 6.53 102.42 6.94Q101.43 7.35 100.71 8.04L98.81 6.14Q100.01 4.91 101.62 4.37Q103.23 3.82 104.95 3.82Q106.49 3.82 107.54 4.17Q108.59 4.52 109.29 5.06Q109.98 5.6 110.36 6.31Q110.73 7.02 110.9 7.74Q111.06 8.46 111.09 9.14Q111.12 9.82 111.12 10.33V18.64H107.87ZM107.66 12.16H106.91Q106.16 12.16 105.22 12.23Q104.29 12.29 103.46 12.51Q102.63 12.74 102.06 13.17Q101.49 13.61 101.49 14.39Q101.49 14.9 101.71 15.25Q101.94 15.6 102.3 15.84Q102.66 16.08 103.11 16.18Q103.57 16.29 104.02 16.29Q105.88 16.29 106.77 15.4Q107.66 14.51 107.66 12.98Z"/>
    <path fill="#0b1641" d="M48.05 37.68Q48.19 39.02 49.07 39.55Q49.96 40.09 51.19 40.09Q51.62 40.09 52.17 40.02Q52.71 39.96 53.2 39.77Q53.68 39.58 53.99 39.22Q54.29 38.86 54.27 38.27Q54.24 37.68 53.84 37.3Q53.44 36.93 52.81 36.7Q52.18 36.47 51.38 36.31Q50.57 36.15 49.74 35.96Q48.88 35.78 48.09 35.51Q47.3 35.24 46.67 34.79Q46.04 34.33 45.67 33.62Q45.29 32.91 45.29 31.87Q45.29 30.74 45.84 29.98Q46.39 29.21 47.24 28.75Q48.08 28.28 49.11 28.09Q50.14 27.9 51.08 27.9Q52.15 27.9 53.13 28.13Q54.11 28.36 54.9 28.87Q55.69 29.38 56.21 30.19Q56.73 31.01 56.87 32.16H53.68Q53.46 31.06 52.67 30.69Q51.88 30.31 50.87 30.31Q50.54 30.31 50.1 30.37Q49.66 30.42 49.27 30.57Q48.88 30.71 48.62 31Q48.35 31.28 48.35 31.73Q48.35 32.29 48.74 32.64Q49.12 32.99 49.75 33.22Q50.38 33.45 51.19 33.61Q51.99 33.77 52.85 33.96Q53.68 34.14 54.48 34.41Q55.29 34.68 55.92 35.13Q56.54 35.59 56.93 36.29Q57.32 36.98 57.32 38Q57.32 39.23 56.76 40.09Q56.2 40.95 55.3 41.48Q54.4 42.02 53.3 42.26Q52.21 42.5 51.13 42.5Q49.82 42.5 48.71 42.21Q47.6 41.91 46.78 41.31Q45.96 40.71 45.5 39.81Q45.03 38.91 45 37.68ZM69 32.91Q68.81 31.62 67.97 30.97Q67.12 30.31 65.84 30.31Q65.25 30.31 64.58 30.51Q63.91 30.71 63.35 31.26Q62.79 31.81 62.41 32.79Q62.04 33.77 62.04 35.35Q62.04 36.21 62.24 37.06Q62.44 37.92 62.88 38.59Q63.32 39.26 64.02 39.67Q64.71 40.09 65.71 40.09Q67.04 40.09 67.92 39.26Q68.79 38.43 69 36.93H72.05Q71.62 39.63 70 41.07Q68.38 42.5 65.71 42.5Q64.07 42.5 62.83 41.95Q61.58 41.4 60.72 40.45Q59.87 39.5 59.42 38.19Q58.98 36.88 58.98 35.35Q58.98 33.79 59.41 32.43Q59.84 31.06 60.7 30.06Q61.55 29.05 62.83 28.48Q64.1 27.9 65.81 27.9Q67.02 27.9 68.1 28.21Q69.19 28.52 70.03 29.13Q70.88 29.75 71.41 30.69Q71.95 31.62 72.05 32.91ZM86.14 39.04Q86.14 39.61 86.29 39.85Q86.44 40.09 86.87 40.09Q87 40.09 87.19 40.09Q87.38 40.09 87.62 40.04V42.15Q87.46 42.21 87.2 42.27Q86.95 42.34 86.68 42.39Q86.41 42.45 86.14 42.47Q85.88 42.5 85.69 42.5Q84.75 42.5 84.13 42.12Q83.52 41.75 83.33 40.81Q82.42 41.7 81.09 42.1Q79.77 42.5 78.54 42.5Q77.6 42.5 76.74 42.25Q75.88 41.99 75.23 41.5Q74.57 41 74.18 40.24Q73.79 39.47 73.79 38.46Q73.79 37.17 74.26 36.37Q74.73 35.56 75.5 35.11Q76.26 34.65 77.21 34.45Q78.16 34.25 79.12 34.14Q79.96 33.98 80.71 33.92Q81.46 33.85 82.03 33.69Q82.61 33.53 82.94 33.19Q83.28 32.86 83.28 32.19Q83.28 31.6 83 31.22Q82.71 30.85 82.3 30.65Q81.88 30.45 81.38 30.38Q80.87 30.31 80.41 30.31Q79.12 30.31 78.29 30.85Q77.46 31.38 77.36 32.51H74.3Q74.38 31.17 74.95 30.29Q75.51 29.4 76.38 28.87Q77.25 28.33 78.35 28.12Q79.45 27.9 80.6 27.9Q81.62 27.9 82.61 28.12Q83.6 28.33 84.39 28.81Q85.18 29.29 85.66 30.06Q86.14 30.82 86.14 31.92ZM83.09 35.19Q82.39 35.64 81.38 35.74Q80.36 35.83 79.34 36.02Q78.86 36.1 78.4 36.25Q77.95 36.39 77.6 36.65Q77.25 36.9 77.05 37.32Q76.85 37.73 76.85 38.32Q76.85 38.83 77.14 39.18Q77.44 39.53 77.85 39.73Q78.27 39.93 78.76 40.01Q79.26 40.09 79.66 40.09Q80.17 40.09 80.76 39.96Q81.35 39.82 81.87 39.5Q82.39 39.18 82.74 38.68Q83.09 38.19 83.09 37.46ZM89.52 23H92.57V42.12H89.52ZM105.4 33.98Q105.35 33.26 105.09 32.59Q104.84 31.92 104.4 31.42Q103.96 30.93 103.33 30.62Q102.7 30.31 101.92 30.31Q101.12 30.31 100.46 30.59Q99.8 30.88 99.33 31.37Q98.87 31.87 98.58 32.54Q98.3 33.21 98.28 33.98ZM98.28 35.99Q98.28 36.79 98.5 37.54Q98.73 38.29 99.19 38.86Q99.64 39.42 100.34 39.75Q101.04 40.09 102 40.09Q103.34 40.09 104.16 39.51Q104.97 38.94 105.37 37.79H108.27Q108.03 38.91 107.44 39.79Q106.85 40.68 106.02 41.28Q105.19 41.88 104.16 42.19Q103.12 42.5 102 42.5Q100.37 42.5 99.11 41.96Q97.85 41.43 96.98 40.46Q96.11 39.5 95.67 38.16Q95.22 36.82 95.22 35.21Q95.22 33.74 95.69 32.42Q96.16 31.09 97.03 30.08Q97.9 29.08 99.13 28.49Q100.37 27.9 101.92 27.9Q103.55 27.9 104.85 28.58Q106.15 29.27 107.01 30.39Q107.87 31.52 108.25 32.98Q108.64 34.44 108.46 35.99Z"/>
  </g>
</svg>
