<svg xmlns="http://www.w3.org/2000/svg" viewBox="-45 -55 90 100" role="img" aria-labelledby="workstation-title workstation-desc">
  <title id="workstation-title">Workstation subscriber icon</title>
  <desc id="workstation-desc">A reusable workstation monitor with a map, used for subscriber endpoints.</desc>
  <defs>
    <linearGradient id="workstation-screen-fill" x1="0" x2="1" y1="0" y2="1">
      <stop offset="0" stop-color="#f7fdff"/>
      <stop offset="1" stop-color="#caeef9"/>
    </linearGradient>
  </defs>
  <g id="workstation">
    <path d="M-39,-38 L39,-50 L39,29 L-39,20Z" fill="#2c93c5" stroke="#07315f" stroke-width="4" stroke-linejoin="round"/>
    <path d="M-29,-29 L27,-37 L27,15 L-29,11Z" fill="url(#workstation-screen-fill)" stroke="#b9ced8" stroke-width="2"/>
    <path d="M-24,-16 L-2,-21 L18,-10 M-14,7 L5,-7 L24,-4" fill="none" stroke="#c4c9cf" stroke-width="2"/>
    <path d="M-17,-17 c0,-4 3,-7 7,-7s7,3 7,7c0,5 -7,14 -7,14s-7,-9 -7,-14Z" fill="#3e9ace" stroke="#07315f" stroke-width="2"/>
    <circle cx="-10" cy="-17" r="2" fill="#fff"/>
    <path d="M12,-3 c0,-4 3,-7 7,-7s7,3 7,7c0,5 -7,14 -7,14s-7,-9 -7,-14Z" fill="#3e9ace" stroke="#07315f" stroke-width="2"/>
    <circle cx="19" cy="-3" r="2" fill="#fff"/>
    <path d="M-10,23 h22 l4,18 h-30Z" fill="#1f6f9f" stroke="#07315f" stroke-width="3" stroke-linejoin="round"/>
  </g>
</svg>
