<svg xmlns="http://www.w3.org/2000/svg" viewBox="0 26 560 150" role="img" aria-label="Pure cloud: two robots each connect over a long link straight to the cloud">
  <title>Pure cloud: two robots each connect over a long link straight to the cloud</title>
<defs>
    <linearGradient id="node-fill" x1="0" x2="0" y1="0" y2="1">
      <stop offset="0" stop-color="#62bfff"/>
      <stop offset="1" stop-color="#247fbd"/>
    </linearGradient>
    <filter id="softShadow" x="-25%" y="-25%" width="150%" height="150%">
      <feDropShadow dx="0" dy="2" stdDeviation="1.5" flood-color="#0b2547" flood-opacity=".25"/>
    </filter>
    <g id="computer">
      <path d="M-24,-8 v16 c0,6 11,11 24,11s24,-5 24,-11V-8" fill="url(#node-fill)"/>
      <ellipse cx="0" cy="-8" rx="24" ry="10" fill="#61bdf5"/>
      <path d="M -24,-8 A 24 10 0 0 1 24,-8 V 8 A 24 10 0 0 1 -24,8 Z" fill="none" stroke="#072f61" stroke-width="3" stroke-linejoin="round"/>
      <circle cx="-16" cy="10.5" r="2.2" fill="#49ca50" stroke="#07315f" stroke-width="1"/>
      <circle cx="-8" cy="13" r="2.2" fill="#49ca50" stroke="#07315f" stroke-width="1"/>
      <circle cx="0" cy="13.5" r="2.2" fill="#49ca50" stroke="#07315f" stroke-width="1"/>
    </g>
    <g id="node">
      <use href="#computer"/>
      <g transform="translate(0, -8) scale(1, 0.42)">
        <polygon points="-16,-2.5 -7,-2.5 -7,-5.5 -2,0 -7,5.5 -7,2.5 -16,2.5" transform="rotate(45)" fill="#072f61"/>
        <polygon points="-16,-2.5 -7,-2.5 -7,-5.5 -2,0 -7,5.5 -7,2.5 -16,2.5" transform="rotate(225)" fill="#072f61"/>
        <polygon points="2,-2.5 11,-2.5 11,-5.5 16,0 11,5.5 11,2.5 2,2.5" transform="rotate(-45)" fill="#072f61"/>
        <polygon points="2,-2.5 11,-2.5 11,-5.5 16,0 11,5.5 11,2.5 2,2.5" transform="rotate(135)" fill="#072f61"/>
      </g>
    </g>
    <g id="cloud">
      <path d="M-26,18 C-40,18 -41,-1 -27,-3 C-28,-22 -2,-26 6,-13 C12,-23 33,-19 28,-4 C40,-3 39,18 26,18 Z"
            fill="url(#node-fill)" stroke="#072f61" stroke-width="3.2" stroke-linejoin="round"/>
    </g>
          <g id="robot" transform="translate(0, 1) scale(0.18) translate(-400, -300)">
<g id="wheel_bl">
    <g stroke="#072f61" stroke-width="16" stroke-linejoin="round" fill="none">
      <polygon points="392.63,336.34 392.94,330.12 393.85,323.91 395.35,317.87 397.40,312.13 399.95,306.86 402.93,302.16 406.27,298.17 409.89,294.98 413.71,292.66 417.62,291.27 421.53,290.86 446.51,294.54 450.33,295.10 453.95,296.63 457.29,299.08 460.27,302.40 462.82,306.51 464.87,311.30 466.37,316.65 467.28,322.44 467.59,328.52 467.28,334.74 466.37,340.95 464.87,346.99 462.82,352.73 460.27,358.00 457.29,362.70 453.95,366.69 450.33,369.88 446.51,372.20 442.60,373.59 438.70,374.00 413.71,370.32 409.89,369.76 406.27,368.23 402.93,365.78 399.95,362.46 397.40,358.35 395.35,353.56 393.85,348.21 392.94,342.42" />
      <polygon points="442.60,324.84 442.30,318.76 441.38,312.97 439.88,307.61 437.83,302.82 435.29,298.72 432.30,295.40 428.96,292.95 425.34,291.42 421.53,290.86 417.62,291.27 413.71,292.66 409.89,294.98 406.27,298.17 402.93,302.16 399.95,306.86 397.40,312.13 395.35,317.87 393.85,323.91 392.94,330.12 392.63,336.34 392.94,342.42 393.85,348.21 395.35,353.56 397.40,358.35 399.95,362.46 402.93,365.78 406.27,368.23 409.89,369.76 413.71,370.32 417.62,369.90 421.53,368.52 425.34,366.20 428.96,363.01 432.30,359.01 435.29,354.32 437.83,349.04 439.88,343.31 441.38,337.27 442.30,331.06" />
    </g>
    <g stroke-linejoin="round">
      <polygon points="392.63,336.34 392.94,330.12 393.85,323.91 395.35,317.87 397.40,312.13 399.95,306.86 402.93,302.16 406.27,298.17 409.89,294.98 413.71,292.66 417.62,291.27 421.53,290.86 446.51,294.54 450.33,295.10 453.95,296.63 457.29,299.08 460.27,302.40 462.82,306.51 464.87,311.30 466.37,316.65 467.28,322.44 467.59,328.52 467.28,334.74 466.37,340.95 464.87,346.99 462.82,352.73 460.27,358.00 457.29,362.70 453.95,366.69 450.33,369.88 446.51,372.20 442.60,373.59 438.70,374.00 413.71,370.32 409.89,369.76 406.27,368.23 402.93,365.78 399.95,362.46 397.40,358.35 395.35,353.56 393.85,348.21 392.94,342.42" fill="#2e91cc" stroke="#2e91cc" stroke-width="1.5" />
      <polygon points="442.60,324.84 442.30,318.76 441.38,312.97 439.88,307.61 437.83,302.82 435.29,298.72 432.30,295.40 428.96,292.95 425.34,291.42 421.53,290.86 417.62,291.27 413.71,292.66 409.89,294.98 406.27,298.17 402.93,302.16 399.95,306.86 397.40,312.13 395.35,317.87 393.85,323.91 392.94,330.12 392.63,336.34 392.94,342.42 393.85,348.21 395.35,353.56 397.40,358.35 399.95,362.46 402.93,365.78 406.27,368.23 409.89,369.76 413.71,370.32 417.62,369.90 421.53,368.52 425.34,366.20 428.96,363.01 432.30,359.01 435.29,354.32 437.83,349.04 439.88,343.31 441.38,337.27 442.30,331.06" fill="#61bdf5" stroke="#61bdf5" stroke-width="1.5" />
    </g>
  </g>
  <g id="wheel_fl">
    <g stroke="#072f61" stroke-width="16" stroke-linejoin="round" fill="none">
      <polygon points="457.60,321.38 457.90,315.16 458.82,308.95 460.32,302.91 462.37,297.18 464.92,291.90 467.90,287.20 471.24,283.21 474.86,280.02 478.68,277.70 482.58,276.31 486.49,275.90 511.48,279.58 515.29,280.14 518.92,281.67 522.26,284.12 525.24,287.44 527.79,291.55 529.84,296.34 531.34,301.69 532.25,307.48 532.56,313.56 532.25,319.78 531.34,325.99 529.84,332.03 527.79,337.77 525.24,343.04 522.26,347.74 518.92,351.73 515.29,354.93 511.48,357.24 507.57,358.63 503.66,359.04 478.68,355.36 474.86,354.80 471.24,353.27 467.90,350.82 464.92,347.50 462.37,343.39 460.32,338.60 458.82,333.25 457.90,327.46" />
      <polygon points="507.57,309.88 507.26,303.80 506.35,298.01 504.85,292.65 502.80,287.87 500.25,283.76 497.27,280.44 493.93,277.99 490.31,276.46 486.49,275.90 482.58,276.31 478.68,277.70 474.86,280.02 471.24,283.21 467.90,287.20 464.92,291.90 462.37,297.18 460.32,302.91 458.82,308.95 457.90,315.16 457.60,321.38 457.90,327.46 458.82,333.25 460.32,338.60 462.37,343.39 464.92,347.50 467.90,350.82 471.24,353.27 474.86,354.80 478.68,355.36 482.58,354.95 486.49,353.56 490.31,351.24 493.93,348.05 497.27,344.05 500.25,339.36 502.80,334.08 504.85,328.35 506.35,322.31 507.26,316.10" />
    </g>
    <g stroke-linejoin="round">
      <polygon points="457.60,321.38 457.90,315.16 458.82,308.95 460.32,302.91 462.37,297.18 464.92,291.90 467.90,287.20 471.24,283.21 474.86,280.02 478.68,277.70 482.58,276.31 486.49,275.90 511.48,279.58 515.29,280.14 518.92,281.67 522.26,284.12 525.24,287.44 527.79,291.55 529.84,296.34 531.34,301.69 532.25,307.48 532.56,313.56 532.25,319.78 531.34,325.99 529.84,332.03 527.79,337.77 525.24,343.04 522.26,347.74 518.92,351.73 515.29,354.93 511.48,357.24 507.57,358.63 503.66,359.04 478.68,355.36 474.86,354.80 471.24,353.27 467.90,350.82 464.92,347.50 462.37,343.39 460.32,338.60 458.82,333.25 457.90,327.46" fill="#2e91cc" stroke="#2e91cc" stroke-width="1.5" />
      <polygon points="507.57,309.88 507.26,303.80 506.35,298.01 504.85,292.65 502.80,287.87 500.25,283.76 497.27,280.44 493.93,277.99 490.31,276.46 486.49,275.90 482.58,276.31 478.68,277.70 474.86,280.02 471.24,283.21 467.90,287.20 464.92,291.90 462.37,297.18 460.32,302.91 458.82,308.95 457.90,315.16 457.60,321.38 457.90,327.46 458.82,333.25 460.32,338.60 462.37,343.39 464.92,347.50 467.90,350.82 471.24,353.27 474.86,354.80 478.68,355.36 482.58,354.95 486.49,353.56 490.31,351.24 493.93,348.05 497.27,344.05 500.25,339.36 502.80,334.08 504.85,328.35 506.35,322.31 507.26,316.10" fill="#61bdf5" stroke="#61bdf5" stroke-width="1.5" />
    </g>
  </g>
  <g id="head">
    <g stroke="#072f61" stroke-width="16" stroke-linejoin="round" fill="none">
      <polygon points="348.78,247.58 411.24,256.78 471.22,242.98 408.75,233.77" />
      <polygon points="348.78,247.58 408.75,233.77 408.75,186.59 348.78,200.40" />
      <polygon points="408.75,233.77 471.22,242.98 471.22,195.80 408.75,186.59" />
    </g>
    <g stroke-linejoin="round">
      <polygon points="348.78,247.58 411.24,256.78 471.22,242.98 408.75,233.77" fill="#247fbd" stroke="#247fbd" stroke-width="1.5" />
      <polygon points="348.78,247.58 408.75,233.77 408.75,186.59 348.78,200.40" fill="#61bdf5" stroke="#61bdf5" stroke-width="1.5" />
      <polygon points="408.75,233.77 471.22,242.98 471.22,195.80 408.75,186.59" fill="#2e91cc" stroke="#2e91cc" stroke-width="1.5" />
    </g>
  </g>
  <g id="eyes">
    <g stroke="#072f61" stroke-width="16" stroke-linejoin="round" fill="none">
      <polygon points="450.23,216.11 450.48,214.10 451.23,212.37 452.39,211.08 453.85,210.36 455.47,210.27 457.09,210.84 458.56,211.99 459.72,213.62 460.46,215.57 460.72,217.65 460.46,219.66 459.72,221.39 458.56,222.68 457.09,223.40 455.47,223.48 453.85,222.92 452.39,221.77 451.23,220.14 450.48,218.18" />
      <polygon points="420.24,211.69 420.50,209.68 421.24,207.95 422.40,206.66 423.87,205.94 425.49,205.85 427.11,206.42 428.57,207.57 429.73,209.20 430.48,211.15 430.73,213.23 430.48,215.24 429.73,216.97 428.57,218.26 427.11,218.98 425.49,219.06 423.87,218.50 422.40,217.35 421.24,215.72 420.50,213.77" />
    </g>
    <g stroke-linejoin="round">
      <polygon points="450.23,216.11 450.48,214.10 451.23,212.37 452.39,211.08 453.85,210.36 455.47,210.27 457.09,210.84 458.56,211.99 459.72,213.62 460.46,215.57 460.72,217.65 460.46,219.66 459.72,221.39 458.56,222.68 457.09,223.40 455.47,223.48 453.85,222.92 452.39,221.77 451.23,220.14 450.48,218.18" fill="white" stroke="white" stroke-width="1.5" />
      <polygon points="420.24,211.69 420.50,209.68 421.24,207.95 422.40,206.66 423.87,205.94 425.49,205.85 427.11,206.42 428.57,207.57 429.73,209.20 430.48,211.15 430.73,213.23 430.48,215.24 429.73,216.97 428.57,218.26 427.11,218.98 425.49,219.06 423.87,218.50 422.40,217.35 421.24,215.72 420.50,213.77" fill="white" stroke="white" stroke-width="1.5" />
    </g>
  </g>
  <g id="body">
    <g stroke="#072f61" stroke-width="16" stroke-linejoin="round" fill="none">
      <polygon points="310.04,333.29 410.00,348.02 479.96,331.91 380.01,317.18" />
      <polygon points="390.00,264.56 489.96,279.29 479.96,269.01 380.01,254.28" />
      <polygon points="380.01,317.18 479.96,331.91 489.96,317.03 390.00,302.30" />
      <polygon points="390.00,302.30 489.96,317.03 489.96,279.29 390.00,264.56" />
      <polygon points="310.04,333.29 380.01,317.18 390.00,302.30 390.00,264.56 380.01,254.28 310.04,270.39" />
    </g>
    <g stroke-linejoin="round">
      <polygon points="310.04,333.29 410.00,348.02 479.96,331.91 380.01,317.18" fill="#247fbd" stroke="#247fbd" stroke-width="1.5" />
      <polygon points="390.00,264.56 489.96,279.29 479.96,269.01 380.01,254.28" fill="#2e91cc" stroke="#2e91cc" stroke-width="1.5" />
      <polygon points="380.01,317.18 479.96,331.91 489.96,317.03 390.00,302.30" fill="#247fbd" stroke="#247fbd" stroke-width="1.5" />
      <polygon points="390.00,302.30 489.96,317.03 489.96,279.29 390.00,264.56" fill="#2e91cc" stroke="#2e91cc" stroke-width="1.5" />
      <polygon points="310.04,333.29 380.01,317.18 390.00,302.30 390.00,264.56 380.01,254.28 310.04,270.39" fill="#61bdf5" stroke="#61bdf5" stroke-width="1.5" />
    </g>
  </g>
  <g id="wheel_br">
    <g stroke="#072f61" stroke-width="16" stroke-linejoin="round" fill="none">
      <polygon points="267.44,317.89 267.75,311.67 268.66,305.46 270.16,299.42 272.21,293.69 274.76,288.41 277.74,283.72 281.08,279.72 284.71,276.53 288.52,274.21 292.43,272.83 296.34,272.41 321.32,276.09 325.14,276.65 328.76,278.18 332.10,280.63 335.08,283.95 337.63,288.06 339.68,292.85 341.18,298.20 342.10,303.99 342.40,310.07 342.10,316.29 341.18,322.50 339.68,328.55 337.63,334.28 335.08,339.55 332.10,344.25 328.76,348.24 325.14,351.44 321.32,353.75 317.42,355.14 313.51,355.55 288.52,351.87 284.71,351.31 281.08,349.78 277.74,347.33 274.76,344.01 272.21,339.90 270.16,335.12 268.66,329.76 267.75,323.97" />
      <polygon points="317.42,306.39 317.11,300.31 316.19,294.52 314.69,289.17 312.64,284.38 310.10,280.27 307.11,276.95 303.77,274.50 300.15,272.97 296.34,272.41 292.43,272.83 288.52,274.21 284.71,276.53 281.08,279.72 277.74,283.72 274.76,288.41 272.21,293.69 270.16,299.42 268.66,305.46 267.75,311.67 267.44,317.89 267.75,323.97 268.66,329.76 270.16,335.12 272.21,339.90 274.76,344.01 277.74,347.33 281.08,349.78 284.71,351.31 288.52,351.87 292.43,351.46 296.34,350.07 300.15,347.75 303.77,344.56 307.11,340.57 310.10,335.87 312.64,330.60 314.69,324.86 316.19,318.82 317.11,312.61" />
    </g>
    <g stroke-linejoin="round">
      <polygon points="267.44,317.89 267.75,311.67 268.66,305.46 270.16,299.42 272.21,293.69 274.76,288.41 277.74,283.72 281.08,279.72 284.71,276.53 288.52,274.21 292.43,272.83 296.34,272.41 321.32,276.09 325.14,276.65 328.76,278.18 332.10,280.63 335.08,283.95 337.63,288.06 339.68,292.85 341.18,298.20 342.10,303.99 342.40,310.07 342.10,316.29 341.18,322.50 339.68,328.55 337.63,334.28 335.08,339.55 332.10,344.25 328.76,348.24 325.14,351.44 321.32,353.75 317.42,355.14 313.51,355.55 288.52,351.87 284.71,351.31 281.08,349.78 277.74,347.33 274.76,344.01 272.21,339.90 270.16,335.12 268.66,329.76 267.75,323.97" fill="#2e91cc" stroke="#2e91cc" stroke-width="1.5" />
      <polygon points="317.42,306.39 317.11,300.31 316.19,294.52 314.69,289.17 312.64,284.38 310.10,280.27 307.11,276.95 303.77,274.50 300.15,272.97 296.34,272.41 292.43,272.83 288.52,274.21 284.71,276.53 281.08,279.72 277.74,283.72 274.76,288.41 272.21,293.69 270.16,299.42 268.66,305.46 267.75,311.67 267.44,317.89 267.75,323.97 268.66,329.76 270.16,335.12 272.21,339.90 274.76,344.01 277.74,347.33 281.08,349.78 284.71,351.31 288.52,351.87 292.43,351.46 296.34,350.07 300.15,347.75 303.77,344.56 307.11,340.57 310.10,335.87 312.64,330.60 314.69,324.86 316.19,318.82 317.11,312.61" fill="#61bdf5" stroke="#61bdf5" stroke-width="1.5" />
    </g>
  </g>
  <g id="wheel_fr">
    <g stroke="#072f61" stroke-width="16" stroke-linejoin="round" fill="none">
      <polygon points="332.41,302.94 332.72,296.71 333.63,290.50 335.13,284.46 337.18,278.73 339.73,273.45 342.71,268.76 346.05,264.76 349.67,261.57 353.49,259.25 357.40,257.87 361.30,257.45 386.29,261.13 390.11,261.69 393.73,263.22 397.07,265.68 400.05,269.00 402.60,273.10 404.65,277.89 406.15,283.24 407.06,289.03 407.37,295.11 407.06,301.33 406.15,307.54 404.65,313.59 402.60,319.32 400.05,324.60 397.07,329.29 393.73,333.28 390.11,336.48 386.29,338.80 382.38,340.18 378.47,340.60 353.49,336.91 349.67,336.35 346.05,334.82 342.71,332.37 339.73,329.05 337.18,324.95 335.13,320.16 333.63,314.80 332.72,309.01" />
      <polygon points="382.38,291.43 382.08,285.35 381.16,279.56 379.66,274.21 377.61,269.42 375.06,265.31 372.08,261.99 368.74,259.54 365.12,258.01 361.30,257.45 357.40,257.87 353.49,259.25 349.67,261.57 346.05,264.76 342.71,268.76 339.73,273.45 337.18,278.73 335.13,284.46 333.63,290.50 332.72,296.71 332.41,302.94 332.72,309.01 333.63,314.80 335.13,320.16 337.18,324.95 339.73,329.05 342.71,332.37 346.05,334.82 349.67,336.35 353.49,336.91 357.40,336.50 361.30,335.11 365.12,332.79 368.74,329.60 372.08,325.61 375.06,320.91 377.61,315.64 379.66,309.90 381.16,303.86 382.08,297.65" />
    </g>
    <g stroke-linejoin="round">
      <polygon points="332.41,302.94 332.72,296.71 333.63,290.50 335.13,284.46 337.18,278.73 339.73,273.45 342.71,268.76 346.05,264.76 349.67,261.57 353.49,259.25 357.40,257.87 361.30,257.45 386.29,261.13 390.11,261.69 393.73,263.22 397.07,265.68 400.05,269.00 402.60,273.10 404.65,277.89 406.15,283.24 407.06,289.03 407.37,295.11 407.06,301.33 406.15,307.54 404.65,313.59 402.60,319.32 400.05,324.60 397.07,329.29 393.73,333.28 390.11,336.48 386.29,338.80 382.38,340.18 378.47,340.60 353.49,336.91 349.67,336.35 346.05,334.82 342.71,332.37 339.73,329.05 337.18,324.95 335.13,320.16 333.63,314.80 332.72,309.01" fill="#2e91cc" stroke="#2e91cc" stroke-width="1.5" />
      <polygon points="382.38,291.43 382.08,285.35 381.16,279.56 379.66,274.21 377.61,269.42 375.06,265.31 372.08,261.99 368.74,259.54 365.12,258.01 361.30,257.45 357.40,257.87 353.49,259.25 349.67,261.57 346.05,264.76 342.71,268.76 339.73,273.45 337.18,278.73 335.13,284.46 333.63,290.50 332.72,296.71 332.41,302.94 332.72,309.01 333.63,314.80 335.13,320.16 337.18,324.95 339.73,329.05 342.71,332.37 346.05,334.82 349.67,336.35 353.49,336.91 357.40,336.50 361.30,335.11 365.12,332.79 368.74,329.60 372.08,325.61 375.06,320.91 377.61,315.64 379.66,309.90 381.16,303.86 382.08,297.65" fill="#61bdf5" stroke="#61bdf5" stroke-width="1.5" />
    </g>
  </g>
  </g>
  </defs>
<style>
    .link  { fill: none; stroke: #7aa7e0; stroke-width: 3.4; stroke-linecap: round; }
    .https { fill: none; stroke: #3a7fbf; stroke-width: 3.4; stroke-linecap: round; }
    .mqtt  { fill: none; stroke: #e08a2b; stroke-width: 3.4; stroke-linecap: round; stroke-dasharray: 2 7; }
    .zlink { fill: none; stroke: #147dff; stroke-width: 3.6; stroke-linecap: round; }
    .endpoint { filter: url(#softShadow); }
    .proto { font: 700 14px "SFMono-Regular","Menlo","Consolas",monospace; }
    .ph { fill: #2f6da3; } .pm { fill: #c0701c; } .pz { fill: #147dff; }
  </style>
  <g id="links">
    <path class="link" d="M132 100 L470 60"/>
    <path class="link" d="M132 100 L470 152"/>
  </g>
  <g class="endpoint">
    <g transform="translate(96 100) scale(1.15)"><use href="#cloud"/></g>
    <g transform="translate(470 60) scale(1.35)"><use href="#robot"/></g>
    <g transform="translate(470 152) scale(1.35)"><use href="#robot"/></g>
  </g>
</svg>
