<svg xmlns="http://www.w3.org/2000/svg" viewBox="0 0 1080 668" role="img" aria-labelledby="title desc">
  <title id="title">Zenoh publish/subscribe data flow animation</title>
  <desc id="desc">Animated topology showing publishers, subscribers, storage nodes, routers, and yellow data paths moving through a Zenoh network.</desc>
  <defs>
    <linearGradient id="node-fill" x1="0" x2="0" y1="0" y2="1">
      <stop offset="0" stop-color="#62bfff"/>
      <stop offset="1" stop-color="#247fbd"/>
    </linearGradient>
    <linearGradient id="storage-fill" x1="0" x2="0" y1="0" y2="1">
      <stop offset="0" stop-color="#62bfff"/>
      <stop offset="1" stop-color="#247fbd"/>
    </linearGradient>
    <linearGradient id="robot-fill" x1="0" x2="0" y1="0" y2="1">
      <stop offset="0" stop-color="#5bbcff"/>
      <stop offset="1" stop-color="#1f78c9"/>
    </linearGradient>
    <linearGradient id="workstation-screen-fill" x1="0" x2="1" y1="0" y2="1">
      <stop offset="0" stop-color="#f7fdff"/>
      <stop offset="1" stop-color="#caeef9"/>
    </linearGradient>
    <marker id="arrow" markerHeight="8" markerWidth="10" orient="auto-start-reverse" refX="9" refY="4">
      <path d="M0,0 L10,4 L0,8 Z" fill="#f5aa00"/>
    </marker>
    <filter id="softShadow" x="-25%" y="-25%" width="150%" height="150%">
      <feDropShadow dx="0" dy="2" stdDeviation="1.5" flood-color="#0b2547" flood-opacity=".25"/>
    </filter>

    <!-- Kept inline for GitHub README rendering; reusable copies live in assets/svg-components/. -->
    <g id="node">
      <ellipse cx="0" cy="-8" rx="24" ry="10" fill="#61bdf5" stroke="#072f61" stroke-width="3"/>
      <path d="M-24,-8 v16 c0,6 11,11 24,11s24,-5 24,-11V-8" fill="url(#node-fill)" stroke="#072f61" stroke-width="3"/>
      <ellipse cx="0" cy="8" rx="24" ry="10" fill="#2e91cc" stroke="#072f61" stroke-width="3"/>
      <path d="M-9,-1 L-2,-5 M-2,-5 L-4,0 M-2,-5 L-7,-6" stroke="#07315f" stroke-width="3" stroke-linecap="round"/>
      <path d="M9,-2 L2,-6 M2,-6 L5,-1 M2,-6 L8,-7" stroke="#07315f" stroke-width="3" stroke-linecap="round"/>
      <circle cx="-12" cy="12" r="2.2" fill="#f7c400" stroke="#07315f" stroke-width="1"/>
      <circle cx="-4" cy="15" r="2.2" fill="#49ca50" stroke="#07315f" stroke-width="1"/>
      <circle cx="5" cy="13" r="2.2" fill="#49ca50" stroke="#07315f" stroke-width="1"/>
    </g>

    <g id="robot">
      <path d="M-22,1 h33 c8,0 15,7 15,15 v7 c0,5 -4,9 -9,9 h-39 c-6,0 -11,-5 -11,-11v-9c0,-6 5,-11 11,-11Z" fill="url(#robot-fill)" stroke="#092b5c" stroke-width="3"/>
      <circle cx="-31" cy="18" r="10" fill="#58b8ff" stroke="#092b5c" stroke-width="3"/>
      <circle cx="1" cy="27" r="12" fill="#58b8ff" stroke="#092b5c" stroke-width="3"/>
      <circle cx="27" cy="23" r="10" fill="#58b8ff" stroke="#092b5c" stroke-width="3"/>
      <path d="M-17,-21 h33 l8,8 v20 h-41Z" fill="#2f93d2" stroke="#092b5c" stroke-width="3" stroke-linejoin="round"/>
      <circle cx="-4" cy="-7" r="3" fill="#d9f4ff" stroke="#092b5c" stroke-width="1.5"/>
      <circle cx="12" cy="-7" r="3" fill="#d9f4ff" stroke="#092b5c" stroke-width="1.5"/>
    </g>

    <g id="storage">
      <ellipse cx="0" cy="-24" rx="26" ry="9" fill="#62bfff" stroke="#07315f" stroke-width="3"/>
      <path d="M-26,-24 v48 c0,6 12,10 26,10s26,-4 26,-10v-48" fill="url(#storage-fill)" stroke="#07315f" stroke-width="3"/>
      <path d="M-26,-8 c0,6 12,10 26,10s26,-4 26,-10 M-26,9 c0,6 12,10 26,10s26,-4 26,-10" fill="none" stroke="#07315f" stroke-width="2"/>
      <circle cx="-12" cy="-7" r="2" fill="#fff"/>
      <circle cx="-3" cy="-7" r="2" fill="#fff"/>
      <circle cx="7" cy="-7" r="2" fill="#fff"/>
      <circle cx="-12" cy="10" r="2" fill="#fff"/>
      <circle cx="-3" cy="10" r="2" fill="#fff"/>
      <circle cx="7" cy="10" r="2" fill="#fff"/>
      <circle cx="-12" cy="27" r="2" fill="#fff"/>
      <circle cx="-3" cy="27" r="2" fill="#fff"/>
      <circle cx="7" cy="27" r="2" fill="#fff"/>
    </g>

    <g id="workstation">
      <path d="M-39,-38 L39,-50 L39,29 L-39,20Z" fill="#2c93c5" stroke="#07315f" stroke-width="4" stroke-linejoin="round"/>
      <path d="M-29,-29 L27,-37 L27,15 L-29,11Z" fill="url(#workstation-screen-fill)" stroke="#b9ced8" stroke-width="2"/>
      <path d="M-24,-16 L-2,-21 L18,-10 M-14,7 L5,-7 L24,-4" fill="none" stroke="#c4c9cf" stroke-width="2"/>
      <path d="M-17,-17 c0,-4 3,-7 7,-7s7,3 7,7c0,5 -7,14 -7,14s-7,-9 -7,-14Z" fill="#3e9ace" stroke="#07315f" stroke-width="2"/>
      <circle cx="-10" cy="-17" r="2" fill="#fff"/>
      <path d="M12,-3 c0,-4 3,-7 7,-7s7,3 7,7c0,5 -7,14 -7,14s-7,-9 -7,-14Z" fill="#3e9ace" stroke="#07315f" stroke-width="2"/>
      <circle cx="19" cy="-3" r="2" fill="#fff"/>
      <path d="M-10,23 h22 l4,18 h-30Z" fill="#1f6f9f" stroke="#07315f" stroke-width="3" stroke-linejoin="round"/>
    </g>

    <g id="data-packet">
      <circle r="9"/>
    </g>

    <path id="fleet1Route" d="M915 404 C865 413 746 404 690 379 L666 255 L462 242 L462 153 M666 255 L803 146"/>
    <path id="fleet2Route" d="M250 346 L368 360 L508 399 L572 494 M368 360 L462 242 L462 153 M368 360 L352 493"/>
  </defs>

  <style>
    :root {
      --blue: #0a6fb0;
      --deep: #0a2d60;
      --link: #c7c7c7;
      --gold: #f5aa00;
      --text: #85888f;
    }

    .bg { fill: #f7f7f7; }
    .link { fill: none; stroke: var(--link); stroke-width: 2; stroke-linecap: round; }
    .flow {
      fill: none;
      stroke: var(--gold);
      stroke-width: 5;
      stroke-linecap: round;
      stroke-linejoin: round;
      marker-end: url(#arrow);
      opacity: 0;
    }
    .flow.fleet1 { animation: fleet1Flow 22.6s linear infinite; }
    .flow.fleet2 { animation: fleet2Flow 22.6s linear infinite; }
    .packet {
      fill: var(--gold);
      stroke: #fff;
      stroke-width: 3;
      opacity: 0;
      filter: url(#softShadow);
    }
    .packet.fleet1 { animation: fleet1Packet 22.6s linear infinite; }
    .packet.fleet2 { animation: fleet2Packet 22.6s linear infinite; }
    .endpoint { filter: url(#softShadow); }
    .publisher, .subscriber, .storageLabel { fill: var(--gold); font: 700 16px Arial, sans-serif; }
    .key { fill: var(--text); font: 16px Arial, sans-serif; }
    .sleep { fill: var(--deep); font: 700 19px Arial, sans-serif; }
    .pulse {
      opacity: 0;
      transform-box: fill-box;
      transform-origin: center;
    }
    .pulse.fleet1 { animation: fleet1Pulse 22.6s ease-in-out infinite; }
    .pulse.fleet2 { animation: fleet2Pulse 22.6s ease-in-out infinite; }

    @keyframes fleet1Flow {
      0%, 7% { opacity: 0; stroke-dasharray: 1 820; stroke-dashoffset: 0; }
      11% { opacity: 1; stroke-dasharray: 170 820; stroke-dashoffset: 0; }
      18% { opacity: 1; stroke-dasharray: 520 820; stroke-dashoffset: 0; }
      25% { opacity: 1; stroke-dasharray: 820 820; stroke-dashoffset: 0; }
      29%, 100% { opacity: 0; stroke-dasharray: 820 820; stroke-dashoffset: 0; }
    }
    @keyframes fleet2Flow {
      0%, 35% { opacity: 0; stroke-dasharray: 1 820; stroke-dashoffset: 0; }
      43% { opacity: 1; stroke-dasharray: 260 820; stroke-dashoffset: 0; }
      53% { opacity: 1; stroke-dasharray: 520 820; stroke-dashoffset: 0; }
      69% { opacity: 1; stroke-dasharray: 820 820; stroke-dashoffset: 0; }
      80%, 100% { opacity: 0; stroke-dasharray: 820 820; stroke-dashoffset: 0; }
    }
    @keyframes fleet1Packet {
      0%, 7%, 29%, 100% { opacity: 0; }
      10%, 26% { opacity: 1; }
    }
    @keyframes fleet2Packet {
      0%, 35%, 80%, 100% { opacity: 0; }
      40%, 72% { opacity: 1; }
    }
    @keyframes fleet1Pulse {
      0%, 8%, 26%, 100% { opacity: 0; transform: scale(.85); }
      17%, 22% { opacity: .28; transform: scale(1.25); }
    }
    @keyframes fleet2Pulse {
      0%, 36%, 76%, 100% { opacity: 0; transform: scale(.85); }
      50%, 69% { opacity: .28; transform: scale(1.25); }
    }
  </style>

  <rect class="bg" width="1080" height="668"/>

  <g id="base-links">
    <path class="link" d="M138 166 L113 282 L250 346 L138 166 L295 169 L250 346 L368 360 L462 242 L295 169"/>
    <path class="link" d="M368 360 L352 493 M368 360 L508 399 L690 379 L666 255 L803 146 M462 242 L666 255 M462 242 L462 153 M508 399 L666 255"/>
    <path class="link" d="M690 379 L815 403 L851 532 L945 385 L815 403 M690 379 L851 532 M915 404 C865 413 746 404 690 379"/>
  </g>

  <g id="endpoint-pulses">
    <circle class="pulse fleet1" cx="462" cy="153" r="32" fill="#f5aa00"/>
    <circle class="pulse fleet1" cx="803" cy="146" r="32" fill="#f5aa00"/>
    <circle class="pulse fleet2" cx="462" cy="153" r="32" fill="#f5aa00"/>
    <circle class="pulse fleet2" cx="352" cy="493" r="32" fill="#f5aa00"/>
    <circle class="pulse fleet2" cx="572" cy="494" r="32" fill="#f5aa00"/>
  </g>

  <g id="flows">
    <use href="#fleet1Route" class="flow fleet1"/>
    <use href="#fleet2Route" class="flow fleet2"/>
    <use href="#data-packet" class="packet fleet1">
      <animateMotion dur="22.6s" repeatCount="indefinite" path="M915 404 C865 413 746 404 690 379 L666 255 L462 242 L462 153" keyTimes="0;0.07;0.26;1" keyPoints="0;0;1;1" calcMode="linear"/>
    </use>
    <use href="#data-packet" class="packet fleet1">
      <animateMotion dur="22.6s" repeatCount="indefinite" path="M915 404 C865 413 746 404 690 379 L666 255 L803 146" keyTimes="0;0.07;0.26;1" keyPoints="0;0;1;1" calcMode="linear"/>
    </use>
    <use href="#data-packet" class="packet fleet2">
      <animateMotion dur="22.6s" repeatCount="indefinite" path="M250 346 L368 360 L508 399 L572 494" keyTimes="0;0.35;0.72;1" keyPoints="0;0;1;1" calcMode="linear"/>
    </use>
    <use href="#data-packet" class="packet fleet2">
      <animateMotion dur="22.6s" repeatCount="indefinite" path="M250 346 L368 360 L462 242 L462 153" keyTimes="0;0.35;0.72;1" keyPoints="0;0;1;1" calcMode="linear"/>
    </use>
    <use href="#data-packet" class="packet fleet2">
      <animateMotion dur="22.6s" repeatCount="indefinite" path="M250 346 L368 360 L352 493" keyTimes="0;0.35;0.72;1" keyPoints="0;0;1;1" calcMode="linear"/>
    </use>
  </g>

  <g id="routers" class="endpoint">
    <use href="#node" x="368" y="360"/>
    <use href="#node" x="462" y="242"/>
    <use href="#node" x="508" y="399"/>
    <use href="#node" x="666" y="255"/>
    <use href="#node" x="690" y="379"/>
  </g>

  <g id="fleet2-zone" class="endpoint">
    <use href="#robot" x="138" y="166"/>
    <use href="#robot" x="113" y="282"/>
    <use href="#robot" x="295" y="169"/>
    <use href="#robot" x="250" y="346"/>
    <use href="#storage" x="352" y="493"/>
  </g>

  <g id="fleet1-zone" class="endpoint">
    <use href="#robot" x="815" y="403"/>
    <use href="#robot" x="945" y="385"/>
    <use href="#robot" x="851" y="532"/>
    <use href="#storage" x="803" y="146"/>
  </g>

  <g id="subscribers" class="endpoint">
    <use href="#workstation" x="462" y="123"/>
    <use href="#robot" x="572" y="494"/>
    <text class="sleep" x="587" y="486">z<tspan dy="-12" font-size="13">Z</tspan></text>
  </g>

  <g id="labels">
    <text class="subscriber" x="506" y="112">Subscriber</text>
    <text class="key" x="506" y="132">fleet/*/robot/*/position</text>

    <text class="storageLabel" x="839" y="142">Storage</text>
    <text class="key" x="839" y="162">fleet/1/**</text>

    <text class="publisher" x="912" y="336">Publisher</text>
    <text class="key" x="826" y="356">fleet/1/robot/2/position</text>

    <text class="publisher" x="100" y="373">Publisher</text>
    <text class="key" x="100" y="393">fleet/2/robot/1/position</text>

    <text class="storageLabel" x="251" y="491">Storage</text>
    <text class="key" x="251" y="511">fleet/2/**</text>

    <text class="subscriber" x="603" y="522">Subscriber</text>
    <text class="key" x="603" y="542">fleet/2/robot/*/position</text>
  </g>

  <g id="zetta-scale-logo" transform="translate(920 48)" fill-rule="evenodd">
    <path fill="#147dff" d="M2 8 L0 12 L0 19 L1 21 L4 24 L6 25 L4 27 L4 28 L2 30 L0 34 L0 42 L26 42 L27 41 L30 41 L34 38 L36 34 L36 29 L34 25 L32 23 L31 23 L30 21 L32 19 L32 18 L35 14 L35 12 L36 11 L36 5 L7 5 L3 8 Z M4 36 L5 35 L5 33 L11 27 L13 26 L16 26 L17 25 L26 25 L27 26 L29 26 L32 30 L32 33 L28 37 L5 37 Z M4 17 L4 13 L7 10 L9 9 L30 9 L31 10 L31 12 L29 16 L24 20 L22 20 L21 21 L8 21 L6 20 Z"/>
    <path fill="#0b1641" d="M102 27 L98 30 L97 32 L97 36 L99 40 L105 42 L106 41 L108 41 L111 38 L111 37 L109 37 L106 40 L103 40 L101 39 L99 36 L100 35 L111 35 L111 31 L107 27 Z M99 32 L102 29 L106 29 L109 32 L108 33 L100 33 Z M78 28 L76 30 L76 32 L75 33 L75 36 L77 40 L79 41 L81 41 L82 42 L86 40 L87 41 L89 41 L89 27 L87 27 L86 28 L84 27 L80 27 Z M80 29 L84 29 L87 32 L87 37 L83 40 L81 40 L78 37 L77 35 L77 33 Z M64 27 L61 29 L59 33 L59 35 L60 36 L60 38 L63 41 L65 41 L67 42 L68 41 L70 41 L73 38 L73 37 L72 36 L68 40 L66 40 L64 39 L61 35 L62 33 L62 31 L65 29 L68 29 L70 30 L71 32 L73 32 L72 29 L69 27 Z M49 27 L46 29 L46 33 L49 35 L52 35 L54 36 L55 38 L53 40 L50 40 L47 37 L45 38 L47 41 L52 42 L53 41 L55 41 L57 39 L57 36 L55 34 L53 34 L52 33 L49 33 L48 32 L48 30 L49 29 L53 29 L55 31 L57 31 L57 30 L53 27 Z M92 23 L92 41 L94 41 L94 23 Z M100 5 L97 8 L96 10 L96 14 L97 16 L100 19 L106 19 L107 18 L108 19 L111 19 L111 5 L108 5 L107 6 L105 5 Z M102 8 L106 8 L108 11 L108 13 L107 15 L104 17 L100 14 L100 10 Z M62 5 L59 8 L58 10 L58 15 L62 19 L69 19 L72 17 L72 15 L69 15 L67 17 L64 17 L61 14 L62 13 L73 13 L73 10 L72 8 L69 5 Z M61 10 L65 7 L69 9 L68 11 L62 11 Z M46 5 L46 8 L51 8 L52 9 L47 14 L47 15 L45 17 L45 19 L57 19 L57 17 L56 16 L51 16 L50 15 L56 9 L57 7 L57 5 Z M77 0 L77 4 L76 5 L74 5 L74 8 L76 8 L77 9 L77 17 L79 19 L83 19 L83 17 L82 17 L80 15 L80 9 L81 8 L87 8 L88 9 L88 18 L89 19 L94 19 L94 17 L92 17 L91 16 L91 9 L92 8 L95 8 L95 5 L92 5 L91 4 L91 0 L88 0 L88 4 L87 5 L81 5 L80 4 L80 0 Z"/>
  </g>
</svg>
