<svg xmlns="http://www.w3.org/2000/svg" viewBox="0 0 1130 530"
     role="img" aria-labelledby="title desc" font-family="'Segoe UI', Helvetica, Arial, sans-serif">
  <title id="title">Zenoh language bindings</title>
  <desc id="desc">Size-scaled diagram of Zenoh language bindings: the wide Rust core (zenoh), the zenoh-c C binding (twice the width of the square zenoh-pico), the standalone pure-C zenoh-pico, and the zenoh-cpp C++ wrapper covering zenoh-pico and half of zenoh-c.</desc>
  <defs>
    <linearGradient id="grad-rust" x1="0" x2="0" y1="0" y2="1">
      <stop offset="0" stop-color="#FCEFE7"/><stop offset="1" stop-color="#F4CBB3"/>
    </linearGradient>
    <linearGradient id="grad-c" x1="0" x2="0" y1="0" y2="1">
      <stop offset="0" stop-color="#F0F5FA"/><stop offset="1" stop-color="#C9DCED"/>
    </linearGradient>
    <linearGradient id="grad-cpp" x1="0" x2="0" y1="0" y2="1">
      <stop offset="0" stop-color="#E9F2FC"/><stop offset="1" stop-color="#B8D4EF"/>
    </linearGradient>
    <linearGradient id="grad-go" x1="0" x2="0" y1="0" y2="1">
      <stop offset="0" stop-color="#E6F7FB"/><stop offset="1" stop-color="#ABE4F1"/>
    </linearGradient>
    <linearGradient id="grad-python" x1="0" x2="0" y1="0" y2="1">
      <stop offset="0" stop-color="#EAF2FB"/><stop offset="1" stop-color="#CADEF2"/>
    </linearGradient>
    <linearGradient id="grad-java" x1="0" x2="0" y1="0" y2="1">
      <stop offset="0" stop-color="#FBF0E6"/><stop offset="1" stop-color="#F3D9BE"/>
    </linearGradient>
    <linearGradient id="grad-kotlin" x1="0" x2="0" y1="0" y2="1">
      <stop offset="0" stop-color="#F3ECFC"/><stop offset="1" stop-color="#DBC9F5"/>
    </linearGradient>
    <linearGradient id="grad-ts" x1="0" x2="0" y1="0" y2="1">
      <stop offset="0" stop-color="#E7F0FA"/><stop offset="1" stop-color="#C2DAF1"/>
    </linearGradient>
    <linearGradient id="grad-server" x1="0" x2="0" y1="0" y2="1">
      <stop offset="0" stop-color="#EEF2F6"/><stop offset="1" stop-color="#D3DDE7"/>
    </linearGradient>
    <filter id="softShadow" x="-20%" y="-20%" width="140%" height="140%">
      <feDropShadow dx="0" dy="3" stdDeviation="4" flood-color="#0b2547" flood-opacity=".22"/>
    </filter>

    <!-- Language logos kept inline for GitHub README rendering; reusable copies live in assets/svg-components/. -->
      <g id="rust-logo">
    <path d="M254.251166,124.861882 L243.503784,118.208973 C243.413284,117.162119 243.310556,116.11771 243.198043,115.078193 L252.433845,106.463655 C253.37308,105.588015 253.793778,104.291676 253.539402,103.036918 C253.292364,101.777268 252.409386,100.740197 251.208438,100.292593 L239.401972,95.8777039 C239.106015,94.8553084 238.795383,93.8402507 238.477413,92.8300848 L245.842085,82.6012382 C246.592983,81.5617213 246.747076,80.2091263 246.257892,79.0228541 C245.768707,77.8414737 244.699839,76.9951846 243.435298,76.7872812 L230.985554,74.7620576 C230.501261,73.8179317 229.997401,72.8884812 229.488649,71.9663686 L234.720477,60.4827639 C235.256134,59.3136131 235.146067,57.9536803 234.431858,56.8921501 C233.720095,55.825728 232.514255,55.2020179 231.2277,55.2509363 L218.592066,55.6912023 C217.939005,54.8742643 217.273714,54.0646641 216.596194,53.2697394 L219.499503,40.9618589 C219.793014,39.7119927 219.42368,38.4034243 218.513797,37.4959872 C217.611251,36.5909959 216.300237,36.2167699 215.050371,36.5102805 L202.744936,39.4111442 C201.947566,38.7360697 201.137965,38.068333 200.318581,37.4152717 L200.761293,24.7796377 C200.810212,23.5004204 200.186502,22.2847971 199.120079,21.5754796 C198.051211,20.8612704 196.698617,20.7536498 195.531912,21.2844149 L184.050753,26.5186884 C183.123748,26.0099366 182.194298,25.5060766 181.255064,25.0193381 L179.224948,12.5671482 C179.019491,11.3050524 178.173202,10.2337384 176.989376,9.744554 C175.807995,9.25292364 174.452954,9.41190858 173.413437,10.1603608 L163.177253,17.5250325 C162.169533,17.2046167 161.156921,16.8964305 160.134526,16.6029198 L155.719636,4.79400749 C155.272032,3.59061377 154.234961,2.70763586 152.975311,2.4581518 C151.718107,2.21111366 150.424215,2.62936635 149.55102,3.56370863 L140.936482,12.8068486 C139.896966,12.6918902 138.850111,12.5867156 137.805702,12.5011083 L131.152794,1.75128029 C130.480165,0.662844913 129.289001,0 128.007338,0 C126.725675,0 125.53451,0.662844913 124.864328,1.75128029 L118.211419,12.5011083 C117.164565,12.5867156 116.11771,12.6918902 115.078193,12.8068486 L106.461209,3.56370863 C105.588015,2.62936635 104.291676,2.21111366 103.036918,2.4581518 C101.777268,2.71008179 100.740197,3.59061377 100.292593,4.79400749 L95.8777039,16.6029198 C94.8553084,16.8964305 93.8426966,17.2070626 92.8325308,17.5250325 L82.5987923,10.1603608 C81.5592754,9.40946266 80.2042345,9.25047772 79.0204082,9.744554 C77.8390277,10.2337384 76.9902927,11.3050524 76.7848353,12.5671482 L74.7547199,25.0193381 C73.8154857,25.5060766 72.8860353,26.0074906 71.9590308,26.5186884 L60.477872,21.2844149 C59.3111672,20.7512039 57.9512344,20.8612704 56.8897042,21.5754796 C55.8232821,22.2847971 55.199572,23.5004204 55.2484904,24.7796377 L55.6887564,37.4152717 C54.8718184,38.068333 54.0622181,38.7360697 53.2624016,39.4111442 L40.9569671,36.5102805 C39.7071008,36.2192158 38.3960865,36.5909959 37.4910953,37.4959872 C36.5812123,38.4034243 36.211878,39.7119927 36.5053887,40.9618589 L39.4038065,53.2697394 C38.7311779,54.06711 38.065887,54.8742643 37.4128258,55.6912023 L24.7771918,55.2509363 C23.5028663,55.2142475 22.2847971,55.825728 21.5730337,56.8921501 C20.8588244,57.9536803 20.7512039,59.3136131 21.281969,60.4827639 L26.5162425,71.9663686 C26.0074906,72.8884812 25.5036307,73.8179317 25.0168922,74.7620576 L12.5671482,76.7872812 C11.3026064,76.9927387 10.2361844,77.8390277 9.744554,79.0228541 C9.25536956,80.2091263 9.41435451,81.5617213 10.1603608,82.6012382 L17.5250325,92.8300848 C17.2046167,93.8402507 16.8939846,94.8553084 16.6004739,95.8777039 L4.79156157,100.292593 C3.5930597,100.740197 2.71008179,101.777268 2.46059772,103.036918 C2.21111366,104.294122 2.62936635,105.588015 3.56615455,106.463655 L12.8044027,115.078193 C12.6894443,116.11771 12.5867156,117.164565 12.4986624,118.208973 L1.75128029,124.861882 C0.662844913,125.53451 -1.42108547e-14,126.723229 -1.42108547e-14,128.007338 C-1.42108547e-14,129.291447 0.662844913,130.480165 1.75128029,131.150348 L12.4986624,137.803256 C12.5867156,138.850111 12.6894443,139.89452 12.8044027,140.934037 L3.56615455,149.55102 C2.62936635,150.424215 2.21111366,151.720553 2.46059772,152.975311 C2.71008179,154.234961 3.5930597,155.269586 4.79156157,155.719636 L16.6004739,160.134526 C16.8939846,161.156921 17.2046167,162.171979 17.5250325,163.182145 L10.1603608,173.413437 C9.41190858,174.4554 9.25292364,175.807995 9.744554,176.989376 C10.2361844,178.175648 11.3050524,179.021937 12.5695941,179.224948 L25.0168922,181.250172 C25.5036307,182.194298 26.0025988,183.123748 26.5162425,184.050753 L21.281969,195.529466 C20.7487579,196.696171 20.8588244,198.053657 21.5730337,199.120079 C22.287243,200.188947 23.5028663,200.812658 24.7771918,200.761293 L37.407934,200.318581 C38.065887,201.140411 38.7287319,201.94512 39.4038065,202.744936 L36.5053887,215.055263 C36.211878,216.302683 36.5812123,217.606359 37.4910953,218.513797 C38.3936406,219.426126 39.7071008,219.790568 40.9569671,219.497057 L53.2624016,216.598639 C54.0622181,217.278606 54.8718184,217.939005 55.6887564,218.58962 L55.2484904,231.2277 C55.199572,232.506917 55.8232821,233.720095 56.8897042,234.434304 C57.9512344,235.146067 59.3111672,235.253688 60.477872,234.720477 L71.9590308,229.488649 C72.8835894,230.002293 73.8130398,230.501261 74.7547199,230.988 L76.7848353,243.432852 C76.9902927,244.699839 77.8365818,245.771153 79.0204082,246.257892 C80.2017886,246.749522 81.5592754,246.590537 82.5987923,245.844531 L92.8276389,238.474968 C93.8378048,238.795383 94.8528625,239.108461 95.875258,239.401972 L100.290148,251.205993 C100.737751,252.404494 101.774822,253.292364 103.034472,253.536956 C104.291676,253.791332 105.585569,253.370634 106.458763,252.4314 L115.075747,243.193151 C116.115264,243.313002 117.162119,243.413284 118.208973,243.506229 L124.861882,254.253612 C125.532065,255.337155 126.723229,256.004892 128.004892,256.004892 C129.286555,256.004892 130.477719,255.339601 131.150348,254.253612 L137.803256,243.506229 C138.850111,243.413284 139.89452,243.313002 140.934037,243.193151 L149.548574,252.4314 C150.421769,253.370634 151.718107,253.791332 152.972866,253.536956 C154.232515,253.289918 155.269586,252.404494 155.71719,251.205993 L160.13208,239.401972 C161.154475,239.108461 162.169533,238.795383 163.179699,238.474968 L173.410991,245.844531 C174.450508,246.590537 175.805549,246.749522 176.98693,246.257892 C178.170756,245.771153 179.017045,244.697394 179.222502,243.432852 L181.252618,230.988 C182.191852,230.501261 183.121302,229.994955 184.048307,229.488649 L195.529466,234.720477 C196.696171,235.253688 198.053657,235.146067 199.117634,234.434304 C200.184056,233.720095 200.80532,232.509363 200.758847,231.2277 L200.318581,218.58962 C201.135519,217.936559 201.94512,217.278606 202.74249,216.598639 L215.047925,219.497057 C216.297791,219.790568 217.608805,219.426126 218.511351,218.513797 C219.421234,217.606359 219.790568,216.302683 219.497057,215.055263 L216.598639,202.744936 C217.273714,201.94512 217.939005,201.140411 218.58962,200.318581 L231.225254,200.761293 C232.49958,200.812658 233.717649,200.188947 234.429412,199.120079 C235.143621,198.053657 235.253688,196.696171 234.718031,195.529466 L229.486203,184.050753 C229.997401,183.123748 230.498815,182.194298 230.983108,181.250172 L243.432852,179.224948 C244.699839,179.021937 245.766262,178.175648 246.255446,176.989376 C246.74463,175.807995 246.590537,174.4554 245.839639,173.413437 L238.474968,163.182145 C238.792937,162.171979 239.10357,161.156921 239.399526,160.134526 L251.205993,155.719636 C252.40694,155.269586 253.292364,154.234961 253.536956,152.975311 C253.791332,151.718107 253.370634,150.424215 252.4314,149.55102 L243.195597,140.934037 C243.30811,139.89452 243.410838,138.847665 243.501338,137.803256 L254.24872,131.150348 C255.337155,130.480165 256,129.289001 256,128.007338 C256,126.725675 255.339601,125.53451 254.251166,124.861882 L254.251166,124.861882 Z M182.31904,214.018192 C178.214783,213.132768 175.604984,209.087212 176.485516,204.970725 C177.363602,200.85913 181.406711,198.241993 185.508523,199.127417 C189.61278,200.005503 192.227471,204.058396 191.346939,208.167546 C190.466407,212.276695 186.420851,214.896278 182.31904,214.018192 L182.31904,214.018192 Z M178.667278,189.319269 C174.922571,188.517007 171.239012,190.899335 170.43675,194.65138 L166.621111,212.457693 C154.846442,217.802033 141.770542,220.771383 128,220.771383 C113.913934,220.771383 100.554307,217.655278 88.5692884,212.083467 L84.7560957,194.277154 C83.9538332,190.530001 80.2702744,188.142781 76.5280135,188.947489 L60.8080715,192.322862 C57.8900864,189.319269 55.1751127,186.120003 52.6802721,182.742185 L129.169151,182.742185 C130.035007,182.742185 130.612245,182.585645 130.612245,181.798059 L130.612245,154.741267 C130.612245,153.95368 130.035007,153.797141 129.169151,153.797141 L106.798746,153.797141 L106.798746,136.646335 L130.993809,136.646335 C133.202476,136.646335 142.802721,137.277383 145.872353,149.548574 C146.833601,153.322632 148.944432,165.598716 150.387526,169.529313 C151.825728,173.936865 157.681266,182.742185 163.920813,182.742185 L202.035619,182.742185 C202.468547,182.742185 202.930826,182.693266 203.417565,182.605213 C200.773523,186.198273 197.872659,189.598104 194.749217,192.775357 L178.667278,189.319269 L178.667278,189.319269 Z M72.8762516,213.646411 C68.7719942,214.531835 64.7313307,211.914698 63.8483528,207.803103 C62.9702668,203.68417 65.5800657,199.641061 69.6843232,198.755637 C73.7885806,197.877551 77.83169,200.494688 78.712222,204.606283 C79.590308,208.715432 76.9780631,212.765879 72.8762516,213.646411 L72.8762516,213.646411 Z M43.8602767,95.9853245 C45.5626385,99.8278682 43.8309256,104.330811 39.9932737,106.030727 C36.1556218,107.735535 31.6649087,106.001376 29.9625468,102.156386 C28.260185,98.3113965 29.9918979,93.8157915 33.8295498,92.1109837 C37.6696476,90.4086219 42.1579149,92.1403348 43.8602767,95.9853245 L43.8602767,95.9853245 Z M34.9424444,117.12543 L51.3178934,109.848811 C54.8155622,108.295651 56.3956279,104.196285 54.8424673,100.691279 L51.4695406,93.0648934 L64.7337767,93.0648934 L64.7337767,152.853015 L37.972942,152.853015 C35.6517618,144.693419 34.4067874,136.081327 34.4067874,127.180616 C34.4067874,123.78323 34.5902316,120.424979 34.9424444,117.12543 L34.9424444,117.12543 Z M106.803638,111.318811 L106.803638,93.6959413 L138.390277,93.6959413 C140.021708,93.6959413 149.910571,95.5817473 149.910571,102.97577 C149.910571,109.115035 142.325766,111.316365 136.088665,111.316365 L106.803638,111.316365 L106.803638,111.318811 Z M221.595658,127.180616 C221.595658,129.518918 221.510051,131.83276 221.338837,134.129481 L211.736146,134.129481 C210.774899,134.129481 210.388443,134.760529 210.388443,135.702209 L210.388443,140.112207 C210.388443,150.4927 204.535351,152.750287 199.406252,153.325078 C194.521746,153.875411 189.106474,151.280287 188.438737,148.29137 C185.557441,132.08469 180.756096,128.62371 173.173737,122.64343 C182.5832,116.668042 192.374226,107.852939 192.374226,96.0538103 C192.374226,83.3130016 183.639838,75.2879309 177.686463,71.3524421 C169.333639,65.8466713 160.085607,64.7435603 157.590767,64.7435603 L58.278988,64.7435603 C71.7462356,49.7133685 89.9977069,39.0662692 110.64129,35.1919285 L122.347474,47.4729038 C124.993962,50.2441336 129.377054,50.3468623 132.145838,47.6979286 L145.243751,35.1699152 C172.689444,40.2794466 195.925705,57.3642131 209.317129,80.8034854 L200.350378,101.055721 C198.80211,104.560728 200.382175,108.660093 203.877398,110.213254 L221.140717,117.88122 C221.439119,120.94596 221.595658,124.042498 221.595658,127.180616 L221.595658,127.180616 Z M122.352366,24.7453948 C125.385309,21.8396392 130.196438,21.9545976 133.099748,24.9924329 C135.998166,28.0376061 135.888099,32.8536268 132.847818,35.7569365 C129.814874,38.662692 125.003745,38.5501796 122.100436,35.5074524 C119.204464,32.4671711 119.31453,27.6511503 122.352366,24.7453948 L122.352366,24.7453948 Z M211.335015,96.3546587 C213.034931,92.512115 217.525644,90.7779561 221.363296,92.4827639 C225.200948,94.1851257 226.932661,98.6856226 225.230299,102.528166 C223.530383,106.373156 219.03967,108.107315 215.199572,106.402507 C211.366812,104.700145 209.635099,100.202094 211.335015,96.3546587 L211.335015,96.3546587 Z" fill="#000000"></path>
    </g>
      <g id="c-logo">
    <path d="M255.987,85.672 C255.985,80.829 254.95,76.55 252.858,72.878 C250.803,69.266 247.724,66.24 243.596,63.846 C209.515,44.176 175.401,24.566 141.332,4.876 C132.147,-0.431 123.241,-0.238 114.124,5.146 C100.559,13.154 32.643,52.102 12.405,63.835 C4.071,68.665 0.015,76.056 0.013,85.663 C0,125.221 0.013,164.777 0,204.336 C0.002,209.072 0.993,213.268 2.993,216.886 C5.049,220.606 8.17,223.716 12.394,226.164 C32.633,237.897 100.558,276.842 114.12,284.852 C123.241,290.239 132.147,290.431 141.335,285.122 C175.405,265.431 209.521,245.822 243.607,226.152 C247.831,223.705 250.952,220.593 253.008,216.876 C255.005,213.258 255.998,209.062 256,204.325 C256,204.325 256,125.231 255.987,85.672" fill="#A9B9CB"></path>
    <path d="M141.101,5.134 C131.931,-0.16 123.04,0.033 113.938,5.403 C100.395,13.39 32.59,52.237 12.385,63.94 C4.064,68.757 0.015,76.129 0.013,85.711 C0,125.166 0.013,164.62 0,204.076 C0.002,208.8 0.991,212.985 2.988,216.593 C5.041,220.304 8.157,223.406 12.374,225.847 C17.003,228.528 24.133,232.635 32.533,237.467 L219.625,50.375 C193.447,35.301 167.262,20.239 141.101,5.134" fill="#7F8B99"></path>
    <path d="M154.456,126.968 L194.295,127.249 C194.295,110.65 177.493,70 129.322,70 C98.631,70 57.371,89.512 57.371,145.61 C57.371,201.707 97.818,220 129.322,220 C180.339,220 192.532,184.698 192.532,164.748 L154.525,162.575 C154.525,162.575 155.542,185.65 129.119,185.65 C104.729,185.65 100.659,155.772 100.659,145.61 C100.659,130.163 106.152,105.366 129.119,105.366 C152.087,105.366 154.456,126.968 154.456,126.968" fill="#FFFFFF"></path>
    </g>
      <g id="cpp-logo">
    <path d="M255.986979,84.5904965 C255.984975,79.7525971 254.950286,75.4776168 252.857869,71.8086261 C250.802513,68.2007351 247.724488,65.1767975 243.595746,62.7858936 C209.515099,43.1348071 175.401398,23.5438187 141.331768,3.87269944 C132.146771,-1.42995881 123.24123,-1.23664316 114.124344,4.14213939 C100.559194,12.142202 32.6433004,51.0527356 12.4052555,62.7748756 C4.0706466,67.5997538 0.0150245322,74.9838106 0.0130212613,84.5814817 C0,124.10101 0.0130212613,163.619536 0,203.140066 C0,207.871792 0.992620764,212.063636 2.99288682,215.677537 C5.04924447,219.394606 8.17034063,222.50168 12.3942375,224.946672 C32.633284,236.668812 100.558193,275.576341 114.120337,283.578406 C123.24123,288.960194 132.146771,289.152508 141.334773,283.847846 C175.405404,264.175725 209.521109,244.585739 243.606764,224.934652 C247.830661,222.490662 250.951757,219.381585 253.008115,215.667521 C255.005376,212.05362 256,207.861775 256,203.129048 C256,203.129048 256,124.111026 255.986979,84.5904965" fill="#649AD2"></path>
    <path d="M128.391639,143.475645 L2.99288682,215.677537 C5.04924447,219.394606 8.17034063,222.50168 12.3942375,224.946672 C32.633284,236.668812 100.558193,275.576341 114.120337,283.578406 C123.24123,288.960194 132.146771,289.152508 141.334773,283.847846 C175.405404,264.175725 209.521109,244.585739 243.606764,224.934652 C247.830661,222.490662 250.951757,219.381585 253.008115,215.667521 L128.391639,143.475645" fill="#004482"></path>
    <path d="M91.2499941,164.862566 C98.5469086,177.601366 112.264307,186.193395 128,186.193395 C143.832852,186.193395 157.628378,177.492188 164.888232,164.617165 L128.391639,143.475645 L91.2499941,164.862566" fill="#1A4674"></path>
    <path d="M255.986979,84.5904965 C255.984975,79.7525971 254.950286,75.4776168 252.857869,71.8086261 L128.391639,143.475645 L253.008115,215.667521 C255.005376,212.05362 255.997997,207.861775 256,203.129048 C256,203.129048 256,124.111026 255.986979,84.5904965" fill="#01589C"></path>
    <path d="M249.13479,148.636071 L239.39689,148.636071 L239.39689,158.375974 L229.656987,158.375974 L229.656987,148.636071 L219.920088,148.636071 L219.920088,138.899172 L229.656987,138.899172 L229.656987,129.161272 L239.39689,129.161272 L239.39689,138.899172 L249.13479,138.899172 L249.13479,148.636071 Z M128,58.8474629 C159.134857,58.8474629 186.357629,75.5874614 201.169171,100.555682 L201.614198,101.314804 L164.612782,122.621594 C157.279808,110.013007 143.634528,101.528152 128,101.528152 C104.620826,101.528152 85.6668779,120.481099 85.6668779,143.860273 C85.6668779,151.505757 87.7052062,158.672458 91.2499941,164.862566 C98.5469086,177.601366 112.264307,186.193395 128,186.193395 C143.658865,186.193395 157.324933,177.682372 164.646534,165.040098 L164.888232,164.617165 L201.834558,186.023117 C187.185639,211.619912 159.606608,228.874085 128,228.874085 C96.4514872,228.874085 68.9155261,211.689025 54.2455728,186.167352 C47.0838791,173.708009 42.9861884,159.263423 42.9861884,143.860273 C42.9861884,96.9096113 81.0473351,58.8474629 128,58.8474629 Z M203.864873,129.161272 L203.864873,138.899172 L213.601772,138.899172 L213.601772,148.636071 L203.864873,148.636071 L203.864873,158.375974 L194.126973,158.375974 L194.126973,148.636071 L184.389073,148.636071 L184.389073,138.899172 L194.126973,138.899172 L194.126973,129.161272 L203.864873,129.161272 Z" fill="#FFFFFF"></path>
    </g>
      <g id="go-logo">
    <path d="M292.533152,13.2950639 L293.657233,14.0455076 C306.869315,22.7704678 316.342129,34.7361275 322.574244,49.1946331 C324.069951,51.4381943 323.072813,52.6846171 320.081398,53.4324709 L315.017741,54.7277932 C303.571167,57.6768058 294.487155,60.1566573 283.191384,63.10567 L276.74841,64.7843862 C274.428264,65.3583626 273.787695,65.1170696 271.320433,62.3073717 L270.972336,61.9081465 C267.453024,57.9195933 264.816991,55.2559574 260.154613,52.878088 L259.255961,52.4353326 C243.551033,44.7075107 228.344673,46.9510719 214.135452,56.1746012 C197.184101,67.1431227 188.459141,83.3466202 188.708425,103.538671 C188.95771,123.481438 202.668362,139.93422 222.361843,142.67635 C239.313195,144.919911 253.522416,138.937081 264.740222,126.223568 C266.983783,123.481438 268.978059,120.490023 271.470905,117.000039 L223.358982,117.000039 C218.124006,117.000039 216.877583,113.759339 218.622575,109.521501 L219.486848,107.487264 C222.690544,100.033179 227.659682,89.3185944 230.887235,83.1925665 L231.591356,81.8743455 C232.452883,80.3801337 234.202861,78.3609287 237.568203,78.3609287 L317.791861,78.3603482 C321.394911,66.9456209 327.24084,56.159659 335.038473,45.9539335 C353.236247,22.0226141 375.17329,9.55838523 404.838154,4.32340907 C430.265181,-0.163713323 454.196501,2.32913245 475.884259,17.0369225 C495.577741,30.4982897 507.792685,48.6960639 511.033385,72.6273834 C515.271222,106.280802 505.549124,133.702105 482.365658,157.134856 C465.912876,173.836922 445.720825,184.306875 422.537359,189.043282 C415.806676,190.289704 409.075992,190.538989 402.594593,191.286843 C379.909697,190.788274 359.219077,184.306875 341.769156,169.3498 C329.496056,158.740849 321.041799,145.701725 316.840932,130.522127 C313.926247,136.409796 310.44016,142.04853 306.370746,147.412757 C288.422257,171.094792 264.989506,185.802582 235.324641,189.791135 C210.894753,193.031835 188.209856,188.295428 168.26709,173.338353 C149.820031,159.378417 139.350079,140.931358 136.607949,117.997177 C133.367249,90.8251575 141.344356,66.3952689 157.797138,44.9567952 C175.496343,21.7733295 198.929093,7.06553943 227.59682,1.8305633 C250.59563,-2.32879605 272.633891,0.235689133 292.533152,13.2950639 L292.533152,13.2950639 Z M411.120284,49.0171223 L410.322415,49.1946331 C387.138949,54.4296092 372.181875,69.1373993 366.697614,92.5701496 C362.210492,112.014347 371.683306,131.707829 389.631795,139.684935 C403.342447,145.667765 417.053099,144.919911 430.265181,138.189228 C449.958663,127.96856 460.6779,112.014347 461.924323,90.575873 C461.675038,87.3351735 461.675038,84.8423277 461.176469,82.3494819 C456.739764,57.9476028 434.511926,44.025432 411.120284,49.0171223 L411.120284,49.0171223 Z M116.415898,94.5644262 C117.413036,94.5644262 117.911605,95.3122799 117.911605,96.3094183 L117.413036,102.292248 C117.413036,103.289387 116.415898,104.03724 115.668044,104.03724 L61.3240061,103.787956 C60.3268678,103.787956 60.0775833,103.040102 60.5761524,102.292248 L64.0661365,96.0601337 C64.5647057,95.3122799 65.561844,94.5644262 66.5589823,94.5644262 L116.415898,94.5644262 Z M121.900159,71.6302451 C122.897297,71.6302451 123.395866,72.3780988 123.146581,73.1259525 L121.152305,79.1087824 C120.90302,80.1059207 119.905882,80.6044899 118.908744,80.6044899 L0.99713831,80.8537744 C0,80.8537744 -0.249284578,80.3552053 0.249284578,79.6073515 L5.48426071,72.8766679 C5.98282987,72.1288142 7.22925276,71.6302451 8.22639107,71.6302451 L121.900159,71.6302451 Z M134.862957,48.6960639 C135.860095,48.6960639 136.109379,49.4439176 135.61081,50.1917714 L131.372973,56.6731704 C130.874403,57.4210241 129.62798,58.1688779 128.880127,58.1688779 L38.6391096,57.9195933 C37.6419713,57.9195933 37.3926867,57.4210241 37.8912558,56.6731704 L43.126232,49.9424868 C43.6248011,49.1946331 44.871224,48.6960639 45.8683623,48.6960639 L134.862957,48.6960639 Z" fill="#00ACD7" fill-rule="nonzero"></path>
    </g>
      <g id="python-logo">
    <defs><linearGradient x1="12.9593594%" y1="12.0393928%" x2="79.6388325%" y2="78.2008538%" id="python-grad-1">
            <stop stop-color="#387EB8" offset="0%"></stop>
            <stop stop-color="#366994" offset="100%"></stop>
        </linearGradient>
        <linearGradient x1="19.127525%" y1="20.5791813%" x2="90.7415328%" y2="88.4290372%" id="python-grad-2">
            <stop stop-color="#FFE052" offset="0%"></stop>
            <stop stop-color="#FFC331" offset="100%"></stop>
        </linearGradient></defs>
    <path d="M126.915866,0.0722755491 C62.0835831,0.0722801733 66.1321288,28.1874648 66.1321288,28.1874648 L66.2044043,57.3145115 L128.072276,57.3145115 L128.072276,66.0598532 L41.6307171,66.0598532 C41.6307171,66.0598532 0.144551098,61.3549438 0.144551098,126.771315 C0.144546474,192.187673 36.3546019,189.867871 36.3546019,189.867871 L57.9649915,189.867871 L57.9649915,159.51214 C57.9649915,159.51214 56.8001363,123.302089 93.5968379,123.302089 L154.95878,123.302089 C154.95878,123.302089 189.434218,123.859386 189.434218,89.9830604 L189.434218,33.9695088 C189.434218,33.9695041 194.668541,0.0722755491 126.915866,0.0722755491 L126.915866,0.0722755491 L126.915866,0.0722755491 Z M92.8018069,19.6589497 C98.9572068,19.6589452 103.932242,24.6339846 103.932242,30.7893845 C103.932246,36.9447844 98.9572068,41.9198193 92.8018069,41.9198193 C86.646407,41.9198239 81.6713721,36.9447844 81.6713721,30.7893845 C81.6713674,24.6339846 86.646407,19.6589497 92.8018069,19.6589497 L92.8018069,19.6589497 L92.8018069,19.6589497 Z" fill="url(#python-grad-1)"></path>
        <path d="M128.757101,254.126271 C193.589403,254.126271 189.540839,226.011081 189.540839,226.011081 L189.468564,196.884035 L127.600692,196.884035 L127.600692,188.138693 L214.042251,188.138693 C214.042251,188.138693 255.528417,192.843589 255.528417,127.427208 C255.52844,62.0108566 219.318366,64.3306589 219.318366,64.3306589 L197.707976,64.3306589 L197.707976,94.6863832 C197.707976,94.6863832 198.87285,130.896434 162.07613,130.896434 L100.714182,130.896434 C100.714182,130.896434 66.238745,130.339138 66.238745,164.215486 L66.238745,220.229038 C66.238745,220.229038 61.0044225,254.126271 128.757101,254.126271 L128.757101,254.126271 L128.757101,254.126271 Z M162.87116,234.539597 C156.715759,234.539597 151.740726,229.564564 151.740726,223.409162 C151.740726,217.253759 156.715759,212.278727 162.87116,212.278727 C169.026563,212.278727 174.001595,217.253759 174.001595,223.409162 C174.001618,229.564564 169.026563,234.539597 162.87116,234.539597 L162.87116,234.539597 L162.87116,234.539597 Z" fill="url(#python-grad-2)"></path>
  </g>
      <g id="java-logo">
    <path d="M82.5539491,267.472524 C82.5539491,267.472524 69.35552,275.147869 91.9468218,277.745105 C119.315549,280.867375 133.303389,280.419607 163.463913,274.711273 C163.463913,274.711273 171.393396,279.683258 182.467491,283.989644 C114.855564,312.966982 29.4483782,282.311215 82.5539491,267.472524" fill="#5382A1"></path>
		<path d="M74.2921309,229.658996 C74.2921309,229.658996 59.4888145,240.616727 82.0968727,242.955171 C111.333004,245.971316 134.421411,246.218007 174.373236,238.524975 C174.373236,238.524975 179.899113,244.127185 188.588218,247.190807 C106.841367,271.094691 15.79008,249.075898 74.2921309,229.658996" fill="#5382A1"></path>
		<path d="M143.941818,165.514705 C160.601367,184.695156 139.564684,201.955142 139.564684,201.955142 C139.564684,201.955142 181.866124,180.117876 162.438982,152.772422 C144.294633,127.271098 130.380335,114.600495 205.706705,70.9138618 C205.706705,70.9138618 87.4691491,100.44416 143.941818,165.514705" fill="#E76F00"></path>
		<path d="M233.364015,295.441687 C233.364015,295.441687 243.131113,303.489396 222.60736,309.715316 C183.580858,321.537862 60.1748945,325.107898 25.8932364,310.186356 C13.5698618,304.825251 36.67968,297.385425 43.9491491,295.824291 C51.5304727,294.180305 55.8629236,294.486575 55.8629236,294.486575 C42.15808,284.832116 -32.7195927,313.443607 17.8287709,321.637469 C155.681513,343.993251 269.121164,311.570618 233.364015,295.441687" fill="#5382A1"></path>
		<path d="M88.9008873,190.479825 C88.9008873,190.479825 26.1287564,205.389265 66.6717091,210.803433 C83.7901964,213.095331 117.915462,212.576815 149.702284,209.913484 C175.680233,207.722124 201.765236,203.062924 201.765236,203.062924 C201.765236,203.062924 192.605091,206.985775 185.977949,211.510924 C122.233949,228.275665 -0.907636364,220.476509 34.5432436,203.328233 C64.5241018,188.83584 88.9008873,190.479825 88.9008873,190.479825" fill="#5382A1"></path>
		<path d="M201.506444,253.422313 C266.305164,219.7504 236.344785,187.392 215.432844,191.751447 C210.307258,192.818269 208.021876,193.742662 208.021876,193.742662 C208.021876,193.742662 209.924655,190.761891 213.558924,189.471651 C254.929455,174.927127 286.746065,232.368873 200.204102,255.11936 C200.204102,255.120291 201.206691,254.223825 201.506444,253.422313" fill="#5382A1"></path>
		<path d="M162.438982,0.371432727 C162.438982,0.371432727 198.325527,36.27008 128.402153,91.4720582 C72.3307055,135.753542 115.616116,161.001658 128.37888,189.848669 C95.6490473,160.318371 71.6297309,134.322735 87.7437673,110.128407 C111.395375,74.6132945 176.918342,57.3942691 162.438982,0.371432727" fill="#E76F00"></path>
		<path d="M95.2683055,344.665367 C157.466996,348.646865 252.980131,342.45632 255.24224,313.025629 C255.24224,313.025629 250.893964,324.182575 203.838371,333.042967 C150.750487,343.033484 85.2740655,341.867055 46.4393309,335.464262 C46.4402618,335.463331 54.3892945,342.043927 95.2683055,344.665367" fill="#5382A1"></path>
  </g>
      <g id="kotlin-logo">
    <defs><linearGradient x1="99.9909179%" y1="0.0292854617%" x2="0.00995772309%" y2="99.9702373%" id="kotlin-grad-1">
            <stop stop-color="#E44857" offset="0.3435144%"></stop>
            <stop stop-color="#C711E1" offset="46.89%"></stop>
            <stop stop-color="#7F52FF" offset="100%"></stop>
        </linearGradient></defs>
    <polygon fill="url(#kotlin-grad-1)" points="105.092357 109.339787 0 109.339787 0 4.28948395 105.092357 4.28948395 52.5461784 56.7936085"></polygon>
  </g>
      <g id="ts-logo">
    <path d="M20,0 L236,0 C247.045695,0 256,8.954305 256,20 L256,236 C256,247.045695 247.045695,256 236,256 L20,256 C8.954305,256 0,247.045695 0,236 L0,20 C0,8.954305 8.954305,0 20,0 Z" fill="#3178C6"></path>
        <path d="M150.518,200.475 L150.518,228.095 C155.01,230.397 160.323,232.123 166.456,233.274 C172.589,234.425 179.053,235 185.849,235 C192.471,235 198.763,234.367 204.723,233.101 C210.683,231.835 215.91,229.749 220.401,226.844 C224.893,223.938 228.449,220.14 231.07,215.45 C233.69,210.761 235,204.964 235,198.059 C235,193.053 234.251,188.665 232.754,184.896 C231.257,181.127 229.097,177.775 226.275,174.841 C223.454,171.906 220.07,169.274 216.126,166.943 C212.181,164.613 207.732,162.412 202.779,160.341 C199.151,158.844 195.898,157.392 193.018,155.982 C190.139,154.572 187.691,153.134 185.676,151.666 C183.66,150.199 182.105,148.645 181.011,147.005 C179.917,145.365 179.37,143.51 179.37,141.438 C179.37,139.539 179.859,137.828 180.838,136.303 C181.817,134.778 183.2,133.469 184.985,132.376 C186.77,131.282 188.958,130.434 191.55,129.829 C194.141,129.225 197.021,128.923 200.188,128.923 C202.492,128.923 204.925,129.096 207.487,129.441 C210.05,129.786 212.627,130.318 215.219,131.038 C217.81,131.757 220.329,132.663 222.777,133.757 C225.224,134.85 227.485,136.116 229.558,137.554 L229.558,111.747 C225.354,110.136 220.761,108.942 215.78,108.165 C210.799,107.388 205.083,107 198.633,107 C192.068,107 185.849,107.705 179.975,109.115 C174.101,110.524 168.932,112.725 164.469,115.717 C160.006,118.71 156.479,122.522 153.887,127.154 C151.296,131.786 150,137.324 150,143.769 C150,151.997 152.375,159.017 157.127,164.829 C161.878,170.64 169.09,175.56 178.765,179.588 C182.566,181.142 186.108,182.666 189.39,184.163 C192.673,185.659 195.509,187.212 197.899,188.823 C200.289,190.434 202.175,192.189 203.557,194.088 C204.939,195.987 205.63,198.145 205.63,200.562 C205.63,202.345 205.198,204 204.334,205.525 C203.471,207.049 202.16,208.373 200.404,209.495 C198.648,210.617 196.459,211.494 193.839,212.127 C191.219,212.76 188.152,213.077 184.639,213.077 C178.65,213.077 172.719,212.027 166.845,209.926 C160.97,207.826 155.528,204.676 150.518,200.475 L150.518,200.475 Z M104.482,131.742 L140,131.742 L140,109 L41,109 L41,131.742 L76.3447,131.742 L76.3447,233 L104.482,233 L104.482,131.742 Z" fill="#FFFFFF"></path>
  </g>
      <g id="server-logo">
    <defs>
      <linearGradient id="server-fill" x1="0" x2="0" y1="0" y2="1">
        <stop offset="0" stop-color="#62bfff"/>
        <stop offset="1" stop-color="#247fbd"/>
      </linearGradient>
    </defs>
    <path d="M-24,-8 v16 c0,6 11,11 24,11s24,-5 24,-11V-8" fill="url(#server-fill)"/>
    <ellipse cx="0" cy="-8" rx="24" ry="10" fill="#61bdf5"/>
    <path d="M -24,-8 A 24 10 0 0 1 24,-8 V 8 A 24 10 0 0 1 -24,8 Z" fill="none" stroke="#072f61" stroke-width="3" stroke-linejoin="round"/>
    <circle cx="-16" cy="10.5" r="2.2" fill="#49ca50" stroke="#07315f" stroke-width="1"/>
    <circle cx="-8" cy="13" r="2.2" fill="#49ca50" stroke="#07315f" stroke-width="1"/>
    <circle cx="0" cy="13.5" r="2.2" fill="#49ca50" stroke="#07315f" stroke-width="1"/>
  </g>
  </defs>

  <rect x="14" y="14" width="1102" height="502" rx="22"
        fill="#FBFCFE" stroke="#E7ECF3" stroke-width="1.5"/>

    <rect x="47" y="47" width="286" height="136" rx="16" fill="url(#grad-cpp)" stroke="#00599C" stroke-width="2" filter="url(#softShadow)"/>
    <rect x="347" y="47" width="136" height="136" rx="16" fill="url(#grad-go)" stroke="#0095BD" stroke-width="2" filter="url(#softShadow)"/>
    <rect x="47" y="197" width="136" height="286" rx="16" fill="url(#grad-c)" stroke="#5B7CA6" stroke-width="2" filter="url(#softShadow)"/>
    <rect x="197" y="197" width="286" height="136" rx="16" fill="url(#grad-c)" stroke="#5B7CA6" stroke-width="2" filter="url(#softShadow)"/>
    <rect x="197" y="347" width="886" height="136" rx="16" fill="url(#grad-rust)" stroke="#C44B22" stroke-width="2" filter="url(#softShadow)"/>
    <rect x="947" y="47" width="136" height="136" rx="16" fill="url(#grad-ts)" stroke="#2D6CB5" stroke-width="2" filter="url(#softShadow)"/>
    <rect x="947" y="197" width="136" height="136" rx="16" fill="url(#grad-server)" stroke="#7287A0" stroke-width="2" filter="url(#softShadow)"/>
    <rect x="497" y="47" width="136" height="286" rx="16" fill="url(#grad-python)" stroke="#3776AB" stroke-width="2" filter="url(#softShadow)"/>
    <rect x="647" y="47" width="136" height="286" rx="16" fill="url(#grad-java)" stroke="#E76F00" stroke-width="2" filter="url(#softShadow)"/>
    <rect x="797" y="47" width="136" height="286" rx="16" fill="url(#grad-kotlin)" stroke="#7F52FF" stroke-width="2" filter="url(#softShadow)"/>
  <svg x="73" y="84.0" width="62" height="62" viewBox="0 0 256 288" preserveAspectRatio="xMidYMid meet"><use href="#cpp-logo"/></svg>
  <text x="153" y="115.0" font-size="27" font-weight="700" fill="#013E70" dominant-baseline="middle">zenoh-cpp</text>
  <svg x="388.0" y="69.5" width="54" height="54" viewBox="0 0 512 192" preserveAspectRatio="xMidYMid meet"><use href="#go-logo"/></svg>
  <text x="415.0" y="150.0" font-size="21" font-weight="700" text-anchor="middle" fill="#0A4A5A" dominant-baseline="middle">zenoh-go</text>
  <svg x="87.0" y="219" width="56" height="56" viewBox="0 0 256 288" preserveAspectRatio="xMidYMid meet"><use href="#c-logo"/></svg>
  <text x="115.0" y="379.0" font-size="27" font-weight="700" text-anchor="middle" fill="#1F3A5F" dominant-baseline="middle" transform="rotate(-90 115.0 379.0)">zenoh-pico</text>
  <svg x="223" y="234.0" width="62" height="62" viewBox="0 0 256 288" preserveAspectRatio="xMidYMid meet"><use href="#c-logo"/></svg>
  <text x="303" y="265.0" font-size="27" font-weight="700" fill="#1F3A5F" dominant-baseline="middle">zenoh-c</text>
  <svg x="223" y="384.0" width="62" height="62" viewBox="0 0 256 256" preserveAspectRatio="xMidYMid meet"><use href="#rust-logo"/></svg>
  <text x="303" y="415.0" font-size="27" font-weight="700" fill="#5A2A14" dominant-baseline="middle">zenoh</text>
  <svg x="988.0" y="69.5" width="54" height="54" viewBox="0 0 256 256" preserveAspectRatio="xMidYMid meet"><use href="#ts-logo"/></svg>
  <text x="1015.0" y="150.0" font-size="21" font-weight="700" text-anchor="middle" fill="#1C4477" dominant-baseline="middle">zenoh-ts</text>
  <svg x="988.0" y="208.5" width="54" height="54" viewBox="-31 -20 62 44" preserveAspectRatio="xMidYMid meet"><use href="#server-logo"/></svg>
  <text x="1015.0" y="289.0" font-size="21" font-weight="700" text-anchor="middle" fill="#33414F" dominant-baseline="middle">websocket</text>
  <text x="1015.0" y="311.0" font-size="21" font-weight="700" text-anchor="middle" fill="#33414F" dominant-baseline="middle">bridge</text>
  <svg x="537.0" y="69" width="56" height="56" viewBox="0 0 256 255" preserveAspectRatio="xMidYMid meet"><use href="#python-logo"/></svg>
  <text x="565.0" y="229.0" font-size="27" font-weight="700" text-anchor="middle" fill="#244E7A" dominant-baseline="middle" transform="rotate(-90 565.0 229.0)">zenoh-python</text>
  <svg x="687.0" y="69" width="56" height="56" viewBox="0 0 256 346" preserveAspectRatio="xMidYMid meet"><use href="#java-logo"/></svg>
  <text x="715.0" y="229.0" font-size="27" font-weight="700" text-anchor="middle" fill="#9C4E00" dominant-baseline="middle" transform="rotate(-90 715.0 229.0)">zenoh-java</text>
  <svg x="837.0" y="69" width="56" height="56" viewBox="0 0 106 113" preserveAspectRatio="xMidYMid meet"><use href="#kotlin-logo"/></svg>
  <text x="865.0" y="229.0" font-size="27" font-weight="700" text-anchor="middle" fill="#5B2ECC" dominant-baseline="middle" transform="rotate(-90 865.0 229.0)">zenoh-kotlin</text>
</svg>
